<svg width="447" height="122" viewBox="0 0 447 122" fill="none" xmlns="http://www.w3.org/2000/svg">
<path d="M110.858 85.2466V74.2715H90.1074C88.8929 74.2715 87.7524 74.0493 86.686 73.605C85.6196 73.131 84.6865 72.509 83.8867 71.7388C83.1165 70.939 82.4945 70.0059 82.0205 68.9395C81.5762 67.873 81.354 66.7326 81.354 65.5181V55.4316C81.354 54.2171 81.5762 53.0767 82.0205 52.0103C82.4945 50.9438 83.1165 50.0256 83.8867 49.2554C84.6865 48.4556 85.6196 47.8335 86.686 47.3892C87.7524 46.9152 88.8929 46.6782 90.1074 46.6782H117.79V55.4316H90.1074V65.5181H110.858C112.072 65.5181 113.198 65.755 114.235 66.229C115.301 66.6733 116.234 67.2954 117.034 68.0952C117.834 68.8654 118.456 69.7837 118.9 70.8501C119.374 71.9165 119.611 73.057 119.611 74.2715V85.2466C119.611 86.4611 119.374 87.6016 118.9 88.668C118.456 89.7344 117.834 90.6675 117.034 91.4673C116.234 92.2375 115.301 92.8595 114.235 93.3335C113.198 93.7778 112.072 94 110.858 94H81.354V85.2466H110.858ZM162.578 94L140.006 73.7827V94H131.297V28.4604H140.006V65.3403L160.756 46.6782H173.064L147.648 69.5171L174.886 94H162.578ZM188.438 46.6782V94H179.685V46.6782H188.438ZM179.24 28.4604H188.882V37.5693H179.24V28.4604ZM210.21 28.4604V94H201.501V28.4604H210.21ZM231.493 28.4604V94H222.784V28.4604H231.493ZM241.312 46.6782H252.865V32.104H261.619V46.6782H277.17V55.4316H261.619V85.2466H277.17V94H261.619C260.434 94 259.308 93.7778 258.242 93.3335C257.175 92.8595 256.242 92.2375 255.442 91.4673C254.643 90.6675 254.006 89.7344 253.532 88.668C253.087 87.6016 252.865 86.4611 252.865 85.2466V55.4316H241.312V46.6782ZM298.498 55.4316V94H289.789V46.6782H298.498V55.0317C298.557 53.8765 298.824 52.7952 299.298 51.7881C299.772 50.7513 300.394 49.8626 301.164 49.1221C301.964 48.3519 302.882 47.7594 303.919 47.3447C304.956 46.9004 306.067 46.6782 307.251 46.6782H316.538C317.753 46.6782 318.878 46.9152 319.915 47.3892C320.981 47.8335 321.915 48.4556 322.714 49.2554C323.514 50.0256 324.136 50.9438 324.581 52.0103C325.055 53.0767 325.292 54.2171 325.292 55.4316V63.4297H316.538V55.4316H298.498ZM374.212 74.8047H342.887V85.2466H374.212V94H342.887C341.702 94 340.576 93.7778 339.51 93.3335C338.443 92.8595 337.51 92.2375 336.71 91.4673C335.94 90.6675 335.318 89.7344 334.844 88.668C334.4 87.6016 334.178 86.4611 334.178 85.2466V55.4316C334.178 54.2171 334.4 53.0767 334.844 52.0103C335.318 50.9438 335.94 50.0256 336.71 49.2554C337.51 48.4556 338.443 47.8335 339.51 47.3892C340.576 46.9152 341.702 46.6782 342.887 46.6782H365.459C366.674 46.6782 367.814 46.9152 368.88 47.3892C369.947 47.8335 370.865 48.4556 371.635 49.2554C372.435 50.0256 373.057 50.9438 373.501 52.0103C373.975 53.0767 374.212 54.2171 374.212 55.4316V74.8047ZM342.887 55.4316V66.0513H365.459V55.4316H342.887ZM426.866 74.8047H395.54V85.2466H426.866V94H395.54C394.355 94 393.229 93.7778 392.163 93.3335C391.097 92.8595 390.164 92.2375 389.364 91.4673C388.594 90.6675 387.972 89.7344 387.498 88.668C387.053 87.6016 386.831 86.4611 386.831 85.2466V55.4316C386.831 54.2171 387.053 53.0767 387.498 52.0103C387.972 50.9438 388.594 50.0256 389.364 49.2554C390.164 48.4556 391.097 47.8335 392.163 47.3892C393.229 46.9152 394.355 46.6782 395.54 46.6782H418.112C419.327 46.6782 420.467 46.9152 421.534 47.3892C422.6 47.8335 423.518 48.4556 424.289 49.2554C425.088 50.0256 425.71 50.9438 426.155 52.0103C426.629 53.0767 426.866 54.2171 426.866 55.4316V74.8047ZM395.54 55.4316V66.0513H418.112V55.4316H395.54Z" fill="black"/>
<mask id="mask0_3358_13051" style="mask-type:luminance" maskUnits="userSpaceOnUse" x="0" y="0" width="60" height="112">
<path d="M0 0H59.7947V111.567H0V0Z" fill="white"/>
</mask>
<g mask="url(#mask0_3358_13051)">
<path d="M39.4951 56.0036C39.4951 58.9478 39.8814 61.944 39.4208 64.8139C38.0515 73.3913 40.8743 78.3288 50.0808 79.3218C57.1304 80.072 60.0474 84.4549 59.3689 91.6061C58.8761 96.7912 59.0866 102.041 58.9504 107.26C58.8984 109.4 58.1036 111.351 55.7388 111.299C53.2181 111.247 52.8739 109.046 52.8615 107C52.8516 105.037 52.9135 103.086 52.9556 101.124C53.1784 90.6181 47.9562 84.5713 37.2864 82.984C33.062 82.3477 28.8971 82.1793 24.6083 82.7537C7.29739 85.0615 7.28748 84.9873 7.51777 102.553C7.53758 104.504 7.62177 106.478 7.46577 108.419C7.32958 110.205 6.24006 111.623 4.41017 111.403C3.35532 111.279 1.68142 110.111 1.56504 109.244C0.468096 100.852 -0.703136 92.3242 1.80523 84.0909C2.93684 80.3964 7.44348 80.0621 10.8433 79.0172C12.7153 78.4427 14.6293 77.9846 16.5434 77.5785C33.941 73.894 36.1671 70.5115 33.2378 52.3612C32.9159 50.3802 32.7995 48.0303 30.467 47.7901C27.1291 47.4559 27.2232 50.296 27.1712 52.5394C27.0573 57.4348 27.1093 62.3302 27.0251 67.2356C26.9954 69.2586 26.5868 71.346 24.1601 71.6605C21.6914 71.9725 20.384 70.1475 20.6019 68.0477C22.8205 47.6861 15.6446 27.3023 20.7505 7.00257C21.4289 4.32087 20.9164 -0.844433 25.7919 0.406036C29.5359 1.36679 27.7357 5.53172 27.1836 8.11932C25.2571 17.1475 23.8779 26.1137 26.7527 35.1938C27.4138 37.2713 27.2777 40.2551 30.5091 39.8589C32.7475 39.5767 32.9877 37.1971 33.5325 35.2978C36.2315 25.8636 34.986 16.573 32.6856 7.29476C31.9849 4.49915 30.6552 0.782415 34.7656 0.051943C37.8831 -0.500244 38.4898 2.99612 39.0543 5.57382C41.2631 15.5206 43.041 25.5194 40.0498 35.5801C38.0193 42.3946 39.7774 49.209 39.4827 56.0036H39.4951Z" fill="#1C1C21"/>
</g>
<mask id="mask1_3358_13051" style="mask-type:luminance" maskUnits="userSpaceOnUse" x="17" y="84" width="27" height="28">
<path d="M17.4473 84.9429H43.4372V112H17.4473V84.9429Z" fill="white"/>
</mask>
<g mask="url(#mask1_3358_13051)">
<path d="M43.3754 98.5767C43.3754 104.443 40.5302 108.449 35.2362 110.809C30.217 113.042 25.5395 112.052 21.4612 108.731C19.2648 106.946 16.3454 104.443 18.8563 101.427C21.2829 98.5049 23.4174 101.417 25.3092 103.128C28.1023 105.663 31.1356 106.102 34.1392 103.628C37.0264 101.239 37.8931 98.1706 35.5407 94.9961C32.6956 91.1457 29.1596 90.7817 25.4256 93.8695C23.3431 95.5805 21.2507 99.6835 18.5418 95.791C16.2612 92.5026 19.5669 89.7169 22.204 87.8053C26.5349 84.6754 31.3461 84.3733 36.1251 86.7307C40.9586 89.1103 43.3853 93.139 43.3853 98.5767H43.3754Z" fill="#1C1C21"/>
</g>
</svg>
