<svg width="393" height="852" viewBox="0 0 393 852" fill="none" xmlns="http://www.w3.org/2000/svg">
<g clip-path="url(#clip0_2526_7779)">
<rect width="393" height="852" rx="40" fill="#1C1C21"/>
<path d="M324 20.6998C326.612 20.7 329.124 21.7094 331.017 23.5194C331.159 23.6592 331.387 23.6574 331.527 23.5155L332.89 22.1324C332.961 22.0604 333.001 21.9629 333 21.8614C332.999 21.7599 332.959 21.6629 332.887 21.5917C327.919 16.8028 320.081 16.8028 315.113 21.5917C315.042 21.6628 315.001 21.7599 315 21.8613C314.999 21.9628 315.039 22.0603 315.11 22.1324L316.473 23.5155C316.613 23.6576 316.841 23.6594 316.984 23.5194C318.877 21.7092 321.389 20.6998 324 20.6998ZM324 25.1997C325.435 25.1996 326.819 25.7361 327.883 26.7049C328.027 26.8424 328.253 26.8395 328.394 26.6982L329.754 25.3151C329.826 25.2426 329.866 25.1441 329.865 25.0419C329.864 24.9396 329.822 24.842 329.749 24.7709C326.51 21.7403 321.494 21.7403 318.255 24.7709C318.182 24.842 318.14 24.9396 318.139 25.0419C318.138 25.1442 318.178 25.2427 318.25 25.3151L319.61 26.6982C319.75 26.8395 319.977 26.8424 320.121 26.7049C321.184 25.7368 322.567 25.2003 324 25.1997ZM326.616 28.5006C326.689 28.4288 326.729 28.3299 326.727 28.2273C326.725 28.1248 326.68 28.0276 326.605 27.9588C325.101 26.6798 322.9 26.6798 321.396 27.9588C321.32 28.0276 321.276 28.1247 321.274 28.2272C321.272 28.3298 321.312 28.4287 321.385 28.5006L323.739 30.8902C323.808 30.9605 323.902 31 324 31C324.099 31 324.193 30.9605 324.262 30.8902L326.616 28.5006Z" fill="white"/>
<path d="M340.923 21.2049C340.923 20.4968 341.497 19.9229 342.205 19.9229H359.833C360.541 19.9229 361.115 20.4968 361.115 21.2049V27.2946C361.115 28.0027 360.541 28.5767 359.833 28.5767H342.205C341.497 28.5767 340.923 28.0027 340.923 27.2946V21.2049Z" fill="white"/>
<path opacity="0.4" d="M359.833 18C361.603 18 363.038 19.435 363.038 21.2051V27.2949C363.038 29.065 361.603 30.5 359.833 30.5H342.205C340.435 30.5 339 29.065 339 27.2949V21.2051C339 19.435 340.435 18 342.205 18H359.833ZM342.205 18.9619C340.966 18.9619 339.962 19.966 339.962 21.2051V27.2949C339.962 28.534 340.966 29.5381 342.205 29.5381H359.833C361.072 29.5381 362.077 28.534 362.077 27.2949V21.2051C362.077 19.966 361.072 18.9619 359.833 18.9619H342.205ZM364 22.2246C364.918 22.4418 365.602 23.2652 365.603 24.25C365.602 25.2348 364.918 26.0582 364 26.2754V22.2246Z" fill="white"/>
<path d="M292.2 25.0508C292.808 25.0509 293.3 25.543 293.3 26.1504V28.9004C293.3 29.5078 292.808 29.9999 292.2 30H291.1C290.492 29.9998 290 29.5078 290 28.9004V26.1504C290 25.543 290.492 25.051 291.1 25.0508H292.2ZM297.25 23.4004C297.802 23.4004 298.25 23.8481 298.25 24.4004V29C298.25 29.5522 297.802 29.9999 297.25 30H295.95C295.398 30 294.95 29.5523 294.95 29V24.4004C294.95 23.8481 295.398 23.4004 295.95 23.4004H297.25ZM302.2 21.2002C302.752 21.2003 303.2 21.648 303.2 22.2002V29C303.2 29.5522 302.752 29.9999 302.2 30H300.9C300.348 30 299.9 29.5523 299.9 29V22.2002C299.9 21.6479 300.348 21.2002 300.9 21.2002H302.2ZM307.15 19C307.702 19.0003 308.15 19.448 308.15 20V29C308.15 29.5521 307.702 29.9997 307.15 30H305.85C305.297 29.9998 304.85 29.5522 304.85 29V20C304.85 19.448 305.298 19.0002 305.85 19H307.15Z" fill="white"/>
<path d="M43.3499 31H45.5735V18.3174H43.3323L40.0188 20.6465V22.7295L43.2971 20.4795H43.3499V31ZM52.86 18.0977C50.1266 18.0977 48.1139 19.9346 48.1139 22.4922V22.5098C48.1139 24.8916 49.8366 26.6494 52.2799 26.6494C53.9938 26.6494 55.2594 25.7705 55.7604 24.6104H55.8131C55.8131 24.751 55.8043 24.8828 55.7955 25.0146C55.7077 27.4141 54.8551 29.3652 52.8161 29.3652C51.6823 29.3652 50.9088 28.8027 50.5661 27.9326L50.5397 27.8535H48.2897L48.3073 27.9502C48.7028 29.8662 50.4606 31.2197 52.8073 31.2197C56.0416 31.2197 57.984 28.7148 57.984 24.5225V24.5049C57.984 20.0576 55.6549 18.0977 52.86 18.0977ZM52.86 24.9004C51.4186 24.9004 50.3463 23.8721 50.3463 22.4307V22.4131C50.3463 21.042 51.4801 19.9521 52.8864 19.9521C54.3102 19.9521 55.4176 21.0508 55.4176 22.457V22.4658C55.4176 23.8809 54.3102 24.9004 52.86 24.9004ZM60.4541 22.7031C61.166 22.7031 61.7197 22.1406 61.7197 21.4287C61.7197 20.7168 61.166 20.1631 60.4541 20.1631C59.7422 20.1631 59.1797 20.7168 59.1797 21.4287C59.1797 22.1406 59.7422 22.7031 60.4541 22.7031ZM60.4541 29.1543C61.166 29.1543 61.7197 28.5918 61.7197 27.8799C61.7197 27.168 61.166 26.6143 60.4541 26.6143C59.7422 26.6143 59.1797 27.168 59.1797 27.8799C59.1797 28.5918 59.7422 29.1543 60.4541 29.1543ZM67.9164 31.2197C71.0189 31.2197 72.8998 28.6973 72.8998 24.6631V24.6455C72.8998 20.6113 71.0189 18.0977 67.9164 18.0977C64.805 18.0977 62.933 20.6113 62.933 24.6455V24.6631C62.933 28.6973 64.805 31.2197 67.9164 31.2197ZM67.9164 29.3652C66.2025 29.3652 65.2181 27.5898 65.2181 24.6631V24.6455C65.2181 21.7188 66.2025 19.9609 67.9164 19.9609C69.6214 19.9609 70.6146 21.7188 70.6146 24.6455V24.6631C70.6146 27.5898 69.6214 29.3652 67.9164 29.3652ZM74.113 31H83.0251V29.1455H77.1101V29.0488L79.905 26.3945C82.1374 24.25 82.8318 23.2393 82.8318 21.7451V21.7275C82.8318 19.6357 81.0564 18.0977 78.5163 18.0977C75.9411 18.0977 73.99 19.7588 73.99 22.0791V22.1406H76.1169V22.0791C76.1433 20.8574 77.1277 19.917 78.5339 19.917C79.7556 19.917 80.6081 20.7256 80.6169 21.8594V21.877C80.6169 22.8174 80.2566 23.459 78.5954 25.085L74.113 29.4531V31Z" fill="white"/>
<rect x="126" y="837" width="142" height="5" rx="2.5" fill="white"/>
<path d="M25.2937 68.2937C25.3866 68.2006 25.4969 68.1267 25.6184 68.0763C25.7398 68.0259 25.8701 68 26.0016 68C26.1331 68 26.2633 68.0259 26.3848 68.0763C26.5062 68.1267 26.6165 68.2006 26.7094 68.2937L32.0003 73.5866L37.2911 68.2937C37.3841 68.2008 37.4944 68.127 37.6159 68.0767C37.7373 68.0264 37.8675 68.0005 37.999 68.0005C38.1304 68.0005 38.2606 68.0264 38.382 68.0767C38.5035 68.127 38.6138 68.2008 38.7068 68.2937C38.7998 68.3867 38.8735 68.497 38.9238 68.6185C38.9741 68.7399 39 68.8701 39 69.0016C39 69.133 38.9741 69.2632 38.9238 69.3847C38.8735 69.5061 38.7998 69.6165 38.7068 69.7094L33.414 75.0003L38.7068 80.2911C38.7998 80.3841 38.8735 80.4944 38.9238 80.6159C38.9741 80.7373 39 80.8675 39 80.999C39 81.1304 38.9741 81.2606 38.9238 81.382C38.8735 81.5035 38.7998 81.6138 38.7068 81.7068C38.6138 81.7998 38.5035 81.8735 38.382 81.9238C38.2606 81.9741 38.1304 82 37.999 82C37.8675 82 37.7373 81.9741 37.6159 81.9238C37.4944 81.8735 37.3841 81.7998 37.2911 81.7068L32.0003 76.414L26.7094 81.7068C26.6165 81.7998 26.5061 81.8735 26.3847 81.9238C26.2632 81.9741 26.133 82 26.0016 82C25.8701 82 25.7399 81.9741 25.6185 81.9238C25.497 81.8735 25.3867 81.7998 25.2937 81.7068C25.2008 81.6138 25.127 81.5035 25.0767 81.382C25.0264 81.2606 25.0005 81.1304 25.0005 80.999C25.0005 80.8675 25.0264 80.7373 25.0767 80.6159C25.127 80.4944 25.2008 80.3841 25.2937 80.2911L30.5866 75.0003L25.2937 69.7094C25.2006 69.6165 25.1267 69.5062 25.0763 69.3848C25.0259 69.2633 25 69.1331 25 69.0016C25 68.8701 25.0259 68.7398 25.0763 68.6184C25.1267 68.4969 25.2006 68.3866 25.2937 68.2937Z" fill="#C6C6C7" stroke="#C6C6C7"/>
<path d="M40.5764 416V397.968H48.3884C50.2178 397.968 51.7578 398.276 53.0084 398.892C54.2591 399.489 55.2111 400.46 55.8644 401.804C56.5178 403.129 56.8444 404.893 56.8444 407.096C56.8444 410.195 56.1258 412.453 54.6884 413.872C53.2698 415.291 51.1698 416 48.3884 416H40.5764ZM45.0844 412.528H47.7724C48.7431 412.528 49.5551 412.388 50.2084 412.108C50.8804 411.809 51.3844 411.268 51.7204 410.484C52.0751 409.7 52.2524 408.571 52.2524 407.096C52.2524 405.603 52.0938 404.455 51.7764 403.652C51.4778 402.831 50.9924 402.261 50.3204 401.944C49.6671 401.608 48.8178 401.44 47.7724 401.44H45.0844V412.528ZM66.0588 416.28C63.5015 416.28 61.6162 415.692 60.4028 414.516C59.1895 413.321 58.5828 411.604 58.5828 409.364C58.5828 407.143 59.1895 405.435 60.4028 404.24C61.6348 403.045 63.5202 402.448 66.0588 402.448C68.6162 402.448 70.5015 403.045 71.7148 404.24C72.9468 405.435 73.5628 407.143 73.5628 409.364C73.5628 411.604 72.9562 413.321 71.7428 414.516C70.5295 415.692 68.6348 416.28 66.0588 416.28ZM66.0588 412.752C67.1042 412.752 67.8508 412.491 68.2988 411.968C68.7468 411.445 68.9708 410.577 68.9708 409.364C68.9708 408.151 68.7468 407.283 68.2988 406.76C67.8508 406.237 67.1042 405.976 66.0588 405.976C65.0322 405.976 64.2948 406.237 63.8468 406.76C63.3988 407.283 63.1748 408.151 63.1748 409.364C63.1748 410.577 63.3988 411.445 63.8468 411.968C64.2948 412.491 65.0322 412.752 66.0588 412.752ZM86.0095 416.28C85.1695 416.28 84.3855 416.131 83.6575 415.832C82.9482 415.533 82.3788 415.076 81.9495 414.46C81.5202 413.825 81.3055 413.041 81.3055 412.108C81.3055 410.745 81.7628 409.681 82.6775 408.916C83.6108 408.132 85.0015 407.74 86.8495 407.74H90.5455V407.432C90.5455 406.76 90.3215 406.284 89.8735 406.004C89.4255 405.705 88.5855 405.556 87.3535 405.556C85.8415 405.556 84.3575 405.789 82.9015 406.256V403.344C83.5548 403.083 84.3482 402.868 85.2815 402.7C86.2335 402.532 87.2322 402.448 88.2775 402.448C90.3308 402.448 91.9362 402.868 93.0935 403.708C94.2695 404.548 94.8575 405.883 94.8575 407.712V416H90.9095L90.6855 414.88C90.2002 415.328 89.5748 415.673 88.8095 415.916C88.0628 416.159 87.1295 416.28 86.0095 416.28ZM87.4375 413.508C88.1468 413.508 88.7628 413.387 89.2855 413.144C89.8082 412.901 90.2282 412.593 90.5455 412.22V410.344H87.3535C86.0282 410.344 85.3655 410.876 85.3655 411.94C85.3655 412.425 85.5335 412.808 85.8695 413.088C86.2055 413.368 86.7282 413.508 87.4375 413.508ZM102.489 416.28C101.425 416.28 100.417 416.205 99.4648 416.056C98.5128 415.907 97.7568 415.72 97.1968 415.496V412.052C97.8501 412.332 98.6061 412.547 99.4648 412.696C100.323 412.845 101.089 412.92 101.761 412.92C102.563 412.92 103.142 412.883 103.497 412.808C103.87 412.733 104.057 412.528 104.057 412.192C104.057 411.819 103.758 411.539 103.161 411.352C102.563 411.165 101.742 410.895 100.697 410.54C99.4835 410.111 98.5595 409.616 97.9248 409.056C97.3088 408.477 97.0008 407.628 97.0008 406.508C97.0008 405.201 97.4861 404.203 98.4568 403.512C99.4461 402.803 101.014 402.448 103.161 402.448C104.001 402.448 104.831 402.513 105.653 402.644C106.474 402.775 107.146 402.924 107.669 403.092V406.48C107.146 406.237 106.549 406.06 105.877 405.948C105.205 405.836 104.598 405.78 104.057 405.78C103.366 405.78 102.778 405.827 102.293 405.92C101.826 405.995 101.593 406.191 101.593 406.508C101.593 406.863 101.854 407.115 102.377 407.264C102.899 407.395 103.655 407.619 104.645 407.936C105.69 408.253 106.502 408.599 107.081 408.972C107.659 409.327 108.07 409.756 108.313 410.26C108.555 410.764 108.677 411.399 108.677 412.164C108.677 413.489 108.154 414.507 107.109 415.216C106.063 415.925 104.523 416.28 102.489 416.28ZM116.975 416V402.728H121.147L121.287 403.904C121.884 403.475 122.556 403.129 123.303 402.868C124.05 402.588 124.852 402.448 125.711 402.448C126.607 402.448 127.307 402.588 127.811 402.868C128.315 403.129 128.707 403.503 128.987 403.988C129.603 403.54 130.294 403.176 131.059 402.896C131.843 402.597 132.758 402.448 133.803 402.448C135.352 402.448 136.491 402.849 137.219 403.652C137.947 404.455 138.311 405.677 138.311 407.32V416H133.859V407.852C133.859 407.124 133.7 406.601 133.383 406.284C133.084 405.948 132.59 405.78 131.899 405.78C131.47 405.78 131.05 405.873 130.639 406.06C130.228 406.228 129.883 406.471 129.603 406.788C129.64 406.993 129.659 407.189 129.659 407.376C129.678 407.563 129.687 407.787 129.687 408.048V416H125.487V407.796C125.487 407.124 125.366 406.62 125.123 406.284C124.899 405.948 124.46 405.78 123.807 405.78C123.34 405.78 122.902 405.901 122.491 406.144C122.08 406.387 121.707 406.667 121.371 406.984V416H116.975ZM144.771 416.28C143.931 416.28 143.147 416.131 142.419 415.832C141.71 415.533 141.141 415.076 140.711 414.46C140.282 413.825 140.067 413.041 140.067 412.108C140.067 410.745 140.525 409.681 141.439 408.916C142.373 408.132 143.763 407.74 145.611 407.74H149.307V407.432C149.307 406.76 149.083 406.284 148.635 406.004C148.187 405.705 147.347 405.556 146.115 405.556C144.603 405.556 143.119 405.789 141.663 406.256V403.344C142.317 403.083 143.11 402.868 144.043 402.7C144.995 402.532 145.994 402.448 147.039 402.448C149.093 402.448 150.698 402.868 151.855 403.708C153.031 404.548 153.619 405.883 153.619 407.712V416H149.671L149.447 414.88C148.962 415.328 148.337 415.673 147.571 415.916C146.825 416.159 145.891 416.28 144.771 416.28ZM146.199 413.508C146.909 413.508 147.525 413.387 148.047 413.144C148.57 412.901 148.99 412.593 149.307 412.22V410.344H146.115C144.79 410.344 144.127 410.876 144.127 411.94C144.127 412.425 144.295 412.808 144.631 413.088C144.967 413.368 145.49 413.508 146.199 413.508ZM156.323 416V402.728H160.523L160.663 403.876C161.204 403.503 161.885 403.176 162.707 402.896C163.528 402.597 164.405 402.448 165.339 402.448C167.056 402.448 168.307 402.859 169.091 403.68C169.875 404.501 170.267 405.771 170.267 407.488V416H165.759V407.852C165.759 407.105 165.6 406.573 165.283 406.256C164.965 405.939 164.396 405.78 163.575 405.78C163.089 405.78 162.595 405.892 162.091 406.116C161.587 406.34 161.167 406.62 160.831 406.956V416H156.323ZM176.212 420.928C175.54 420.928 174.961 420.891 174.476 420.816C174.009 420.76 173.543 420.639 173.076 420.452V417.316C173.393 417.428 173.683 417.503 173.944 417.54C174.224 417.577 174.504 417.596 174.784 417.596C175.549 417.596 176.119 417.456 176.492 417.176C176.884 416.915 177.276 416.439 177.668 415.748L171.704 402.728H176.436L179.936 411.156L183.38 402.728H188.084L183.016 414.908C182.512 416.121 181.952 417.176 181.336 418.072C180.72 418.987 180.001 419.687 179.18 420.172C178.359 420.676 177.369 420.928 176.212 420.928ZM195.834 422.048V402.728H199.754L199.978 403.876C200.52 403.428 201.126 403.083 201.798 402.84C202.47 402.579 203.254 402.448 204.15 402.448C206.036 402.448 207.529 402.961 208.63 403.988C209.732 404.996 210.282 406.695 210.282 409.084C210.282 411.455 209.713 413.247 208.574 414.46C207.454 415.673 205.905 416.28 203.926 416.28C202.526 416.28 201.332 415.991 200.342 415.412V422.048H195.834ZM202.778 412.976C204.72 412.976 205.69 411.651 205.69 409C205.69 407.731 205.466 406.872 205.018 406.424C204.57 405.976 203.852 405.752 202.862 405.752C201.91 405.752 201.07 406.088 200.342 406.76V412.136C200.697 412.397 201.052 412.603 201.406 412.752C201.78 412.901 202.237 412.976 202.778 412.976ZM217.133 416.28C215.565 416.28 214.342 415.841 213.465 414.964C212.587 414.068 212.149 412.771 212.149 411.072V402.728H216.657V410.82C216.657 411.567 216.834 412.117 217.189 412.472C217.562 412.808 218.113 412.976 218.841 412.976C219.382 412.976 219.895 412.864 220.381 412.64C220.866 412.416 221.267 412.136 221.585 411.8V402.728H226.093V416H221.893L221.753 414.88C221.211 415.291 220.558 415.627 219.793 415.888C219.027 416.149 218.141 416.28 217.133 416.28ZM233.876 416.28C232.812 416.28 231.804 416.205 230.852 416.056C229.9 415.907 229.144 415.72 228.584 415.496V412.052C229.237 412.332 229.993 412.547 230.852 412.696C231.71 412.845 232.476 412.92 233.148 412.92C233.95 412.92 234.529 412.883 234.884 412.808C235.257 412.733 235.444 412.528 235.444 412.192C235.444 411.819 235.145 411.539 234.548 411.352C233.95 411.165 233.129 410.895 232.084 410.54C230.87 410.111 229.946 409.616 229.312 409.056C228.696 408.477 228.388 407.628 228.388 406.508C228.388 405.201 228.873 404.203 229.844 403.512C230.833 402.803 232.401 402.448 234.548 402.448C235.388 402.448 236.218 402.513 237.04 402.644C237.861 402.775 238.533 402.924 239.056 403.092V406.48C238.533 406.237 237.936 406.06 237.264 405.948C236.592 405.836 235.985 405.78 235.444 405.78C234.753 405.78 234.165 405.827 233.68 405.92C233.213 405.995 232.98 406.191 232.98 406.508C232.98 406.863 233.241 407.115 233.764 407.264C234.286 407.395 235.042 407.619 236.032 407.936C237.077 408.253 237.889 408.599 238.468 408.972C239.046 409.327 239.457 409.756 239.7 410.26C239.942 410.764 240.064 411.399 240.064 412.164C240.064 413.489 239.541 414.507 238.496 415.216C237.45 415.925 235.91 416.28 233.876 416.28ZM242.346 416V397.128H246.854V403.708C247.358 403.335 247.983 403.036 248.73 402.812C249.477 402.569 250.279 402.448 251.138 402.448C252.911 402.448 254.209 402.868 255.03 403.708C255.87 404.548 256.29 405.836 256.29 407.572V416H251.782V407.88C251.782 407.115 251.623 406.573 251.306 406.256C250.989 405.939 250.419 405.78 249.598 405.78C249.113 405.78 248.618 405.892 248.114 406.116C247.61 406.34 247.19 406.62 246.854 406.956V416H242.346ZM258.438 409.98V406.48H269.498V409.98H258.438ZM276.359 416.28C274.791 416.28 273.569 415.841 272.691 414.964C271.814 414.068 271.375 412.771 271.375 411.072V402.728H275.883V410.82C275.883 411.567 276.061 412.117 276.415 412.472C276.789 412.808 277.339 412.976 278.067 412.976C278.609 412.976 279.122 412.864 279.607 412.64C280.093 412.416 280.494 412.136 280.811 411.8V402.728H285.319V416H281.119L280.979 414.88C280.438 415.291 279.785 415.627 279.019 415.888C278.254 416.149 277.367 416.28 276.359 416.28ZM288.174 422.048V402.728H292.094L292.318 403.876C292.859 403.428 293.466 403.083 294.138 402.84C294.81 402.579 295.594 402.448 296.49 402.448C298.375 402.448 299.869 402.961 300.97 403.988C302.071 404.996 302.622 406.695 302.622 409.084C302.622 411.455 302.053 413.247 300.914 414.46C299.794 415.673 298.245 416.28 296.266 416.28C294.866 416.28 293.671 415.991 292.682 415.412V422.048H288.174ZM295.118 412.976C297.059 412.976 298.03 411.651 298.03 409C298.03 407.731 297.806 406.872 297.358 406.424C296.91 405.976 296.191 405.752 295.202 405.752C294.25 405.752 293.41 406.088 292.682 406.76V412.136C293.037 412.397 293.391 412.603 293.746 412.752C294.119 412.901 294.577 412.976 295.118 412.976ZM309.7 416.28C308.636 416.28 307.628 416.205 306.676 416.056C305.724 415.907 304.968 415.72 304.408 415.496V412.052C305.061 412.332 305.817 412.547 306.676 412.696C307.534 412.845 308.3 412.92 308.972 412.92C309.774 412.92 310.353 412.883 310.708 412.808C311.081 412.733 311.268 412.528 311.268 412.192C311.268 411.819 310.969 411.539 310.372 411.352C309.774 411.165 308.953 410.895 307.908 410.54C306.694 410.111 305.77 409.616 305.136 409.056C304.52 408.477 304.212 407.628 304.212 406.508C304.212 405.201 304.697 404.203 305.668 403.512C306.657 402.803 308.225 402.448 310.372 402.448C311.212 402.448 312.042 402.513 312.864 402.644C313.685 402.775 314.357 402.924 314.88 403.092V406.48C314.357 406.237 313.76 406.06 313.088 405.948C312.416 405.836 311.809 405.78 311.268 405.78C310.577 405.78 309.989 405.827 309.504 405.92C309.037 405.995 308.804 406.191 308.804 406.508C308.804 406.863 309.065 407.115 309.588 407.264C310.11 407.395 310.866 407.619 311.856 407.936C312.901 408.253 313.713 408.599 314.292 408.972C314.87 409.327 315.281 409.756 315.524 410.26C315.766 410.764 315.888 411.399 315.888 412.164C315.888 413.489 315.365 414.507 314.32 415.216C313.274 415.925 311.734 416.28 309.7 416.28ZM328.33 416.28C327.49 416.28 326.706 416.131 325.978 415.832C325.268 415.533 324.699 415.076 324.27 414.46C323.84 413.825 323.626 413.041 323.626 412.108C323.626 410.745 324.083 409.681 324.998 408.916C325.931 408.132 327.322 407.74 329.17 407.74H332.866V407.432C332.866 406.76 332.642 406.284 332.194 406.004C331.746 405.705 330.906 405.556 329.674 405.556C328.162 405.556 326.678 405.789 325.222 406.256V403.344C325.875 403.083 326.668 402.868 327.602 402.7C328.554 402.532 329.552 402.448 330.598 402.448C332.651 402.448 334.256 402.868 335.414 403.708C336.59 404.548 337.178 405.883 337.178 407.712V416H333.23L333.006 414.88C332.52 415.328 331.895 415.673 331.13 415.916C330.383 416.159 329.45 416.28 328.33 416.28ZM329.758 413.508C330.467 413.508 331.083 413.387 331.606 413.144C332.128 412.901 332.548 412.593 332.866 412.22V410.344H329.674C328.348 410.344 327.686 410.876 327.686 411.94C327.686 412.425 327.854 412.808 328.19 413.088C328.526 413.368 329.048 413.508 329.758 413.508ZM344.809 416.28C343.745 416.28 342.737 416.205 341.785 416.056C340.833 415.907 340.077 415.72 339.517 415.496V412.052C340.17 412.332 340.926 412.547 341.785 412.696C342.644 412.845 343.409 412.92 344.081 412.92C344.884 412.92 345.462 412.883 345.817 412.808C346.19 412.733 346.377 412.528 346.377 412.192C346.377 411.819 346.078 411.539 345.481 411.352C344.884 411.165 344.062 410.895 343.017 410.54C341.804 410.111 340.88 409.616 340.245 409.056C339.629 408.477 339.321 407.628 339.321 406.508C339.321 405.201 339.806 404.203 340.777 403.512C341.766 402.803 343.334 402.448 345.481 402.448C346.321 402.448 347.152 402.513 347.973 402.644C348.794 402.775 349.466 402.924 349.989 403.092V406.48C349.466 406.237 348.869 406.06 348.197 405.948C347.525 405.836 346.918 405.78 346.377 405.78C345.686 405.78 345.098 405.827 344.613 405.92C344.146 405.995 343.913 406.191 343.913 406.508C343.913 406.863 344.174 407.115 344.697 407.264C345.22 407.395 345.976 407.619 346.965 407.936C348.01 408.253 348.822 408.599 349.401 408.972C349.98 409.327 350.39 409.756 350.633 410.26C350.876 410.764 350.997 411.399 350.997 412.164C350.997 413.489 350.474 414.507 349.429 415.216C348.384 415.925 346.844 416.28 344.809 416.28ZM50.6663 460.048V440.728H54.5863L54.8103 441.876C55.3516 441.428 55.9583 441.083 56.6303 440.84C57.3023 440.579 58.0863 440.448 58.9823 440.448C60.8676 440.448 62.3609 440.961 63.4623 441.988C64.5636 442.996 65.1143 444.695 65.1143 447.084C65.1143 449.455 64.5449 451.247 63.4063 452.46C62.2863 453.673 60.7369 454.28 58.7583 454.28C57.3583 454.28 56.1636 453.991 55.1743 453.412V460.048H50.6663ZM57.6103 450.976C59.5516 450.976 60.5223 449.651 60.5223 447C60.5223 445.731 60.2983 444.872 59.8503 444.424C59.4023 443.976 58.6836 443.752 57.6943 443.752C56.7423 443.752 55.9023 444.088 55.1743 444.76V450.136C55.5289 450.397 55.8836 450.603 56.2383 450.752C56.6116 450.901 57.0689 450.976 57.6103 450.976ZM74.3167 454.28C71.7593 454.28 69.874 453.692 68.6607 452.516C67.4473 451.321 66.8407 449.604 66.8407 447.364C66.8407 445.143 67.4473 443.435 68.6607 442.24C69.8927 441.045 71.778 440.448 74.3167 440.448C76.874 440.448 78.7593 441.045 79.9727 442.24C81.2047 443.435 81.8207 445.143 81.8207 447.364C81.8207 449.604 81.214 451.321 80.0007 452.516C78.7873 453.692 76.8927 454.28 74.3167 454.28ZM74.3167 450.752C75.362 450.752 76.1087 450.491 76.5567 449.968C77.0047 449.445 77.2287 448.577 77.2287 447.364C77.2287 446.151 77.0047 445.283 76.5567 444.76C76.1087 444.237 75.362 443.976 74.3167 443.976C73.29 443.976 72.5527 444.237 72.1047 444.76C71.6567 445.283 71.4327 446.151 71.4327 447.364C71.4327 448.577 71.6567 449.445 72.1047 449.968C72.5527 450.491 73.29 450.752 74.3167 450.752ZM88.899 454.28C87.835 454.28 86.827 454.205 85.875 454.056C84.923 453.907 84.167 453.72 83.607 453.496V450.052C84.2603 450.332 85.0163 450.547 85.875 450.696C86.7336 450.845 87.499 450.92 88.171 450.92C88.9736 450.92 89.5523 450.883 89.907 450.808C90.2803 450.733 90.467 450.528 90.467 450.192C90.467 449.819 90.1683 449.539 89.571 449.352C88.9736 449.165 88.1523 448.895 87.107 448.54C85.8936 448.111 84.9696 447.616 84.335 447.056C83.719 446.477 83.411 445.628 83.411 444.508C83.411 443.201 83.8963 442.203 84.867 441.512C85.8563 440.803 87.4243 440.448 89.571 440.448C90.411 440.448 91.2416 440.513 92.063 440.644C92.8843 440.775 93.5563 440.924 94.079 441.092V444.48C93.5563 444.237 92.959 444.06 92.287 443.948C91.615 443.836 91.0083 443.78 90.467 443.78C89.7763 443.78 89.1883 443.827 88.703 443.92C88.2363 443.995 88.003 444.191 88.003 444.508C88.003 444.863 88.2643 445.115 88.787 445.264C89.3096 445.395 90.0656 445.619 91.055 445.936C92.1003 446.253 92.9123 446.599 93.491 446.972C94.0696 447.327 94.4803 447.756 94.723 448.26C94.9656 448.764 95.087 449.399 95.087 450.164C95.087 451.489 94.5643 452.507 93.519 453.216C92.4736 453.925 90.9336 454.28 88.899 454.28ZM101.586 454.28C100.522 454.28 99.5145 454.205 98.5625 454.056C97.6105 453.907 96.8545 453.72 96.2945 453.496V450.052C96.9478 450.332 97.7038 450.547 98.5625 450.696C99.4211 450.845 100.186 450.92 100.858 450.92C101.661 450.92 102.24 450.883 102.594 450.808C102.968 450.733 103.154 450.528 103.154 450.192C103.154 449.819 102.856 449.539 102.258 449.352C101.661 449.165 100.84 448.895 99.7945 448.54C98.5811 448.111 97.6571 447.616 97.0225 447.056C96.4065 446.477 96.0985 445.628 96.0985 444.508C96.0985 443.201 96.5838 442.203 97.5545 441.512C98.5438 440.803 100.112 440.448 102.258 440.448C103.098 440.448 103.929 440.513 104.75 440.644C105.572 440.775 106.244 440.924 106.766 441.092V444.48C106.244 444.237 105.646 444.06 104.974 443.948C104.302 443.836 103.696 443.78 103.154 443.78C102.464 443.78 101.876 443.827 101.39 443.92C100.924 443.995 100.69 444.191 100.69 444.508C100.69 444.863 100.952 445.115 101.474 445.264C101.997 445.395 102.753 445.619 103.742 445.936C104.788 446.253 105.6 446.599 106.178 446.972C106.757 447.327 107.168 447.756 107.41 448.26C107.653 448.764 107.774 449.399 107.774 450.164C107.774 451.489 107.252 452.507 106.206 453.216C105.161 453.925 103.621 454.28 101.586 454.28ZM110.953 438.628V435.24H115.853V438.628H110.953ZM111.317 454V444.06H109.357L109.749 440.728H115.825V454H111.317ZM127.014 454.28C126.118 454.28 125.334 454.168 124.662 453.944C123.99 453.701 123.383 453.347 122.842 452.88L122.618 454H118.698V435.128H123.206V441.344C123.71 441.045 124.279 440.821 124.914 440.672C125.548 440.523 126.202 440.448 126.874 440.448C128.815 440.448 130.346 440.989 131.466 442.072C132.586 443.136 133.146 444.863 133.146 447.252C133.146 449.641 132.595 451.415 131.494 452.572C130.392 453.711 128.899 454.28 127.014 454.28ZM125.726 451.004C126.734 451.004 127.452 450.705 127.882 450.108C128.33 449.492 128.554 448.549 128.554 447.28C128.554 445.973 128.32 445.059 127.854 444.536C127.406 444.013 126.696 443.752 125.726 443.752C124.662 443.752 123.822 444.032 123.206 444.592V449.996C123.878 450.668 124.718 451.004 125.726 451.004ZM139.52 454.28C138.064 454.28 137.019 453.963 136.384 453.328C135.749 452.693 135.432 451.676 135.432 450.276V435.128H139.94V449.828C139.94 450.257 140.024 450.556 140.192 450.724C140.379 450.873 140.649 450.948 141.004 450.948C141.508 450.948 141.956 450.883 142.348 450.752V453.804C141.919 453.972 141.489 454.093 141.06 454.168C140.649 454.243 140.136 454.28 139.52 454.28ZM151.157 454.28C148.843 454.28 146.985 453.711 145.585 452.572C144.185 451.415 143.485 449.679 143.485 447.364C143.485 445.255 144.064 443.575 145.221 442.324C146.379 441.073 148.115 440.448 150.429 440.448C152.539 440.448 154.172 440.989 155.329 442.072C156.487 443.155 157.065 444.611 157.065 446.44V448.82H147.657C147.863 449.697 148.339 450.313 149.085 450.668C149.851 451.004 150.887 451.172 152.193 451.172C152.921 451.172 153.659 451.107 154.405 450.976C155.171 450.845 155.805 450.677 156.309 450.472V453.412C155.675 453.711 154.919 453.925 154.041 454.056C153.164 454.205 152.203 454.28 151.157 454.28ZM147.657 446.216H153.145V445.628C153.145 444.975 152.949 444.461 152.557 444.088C152.165 443.696 151.503 443.5 150.569 443.5C149.487 443.5 148.731 443.724 148.301 444.172C147.872 444.601 147.657 445.283 147.657 446.216ZM166.269 438.628V435.24H171.169V438.628H166.269ZM166.633 454V444.06H164.673L165.065 440.728H171.141V454H166.633ZM174.014 454V440.728H178.214L178.354 441.876C178.895 441.503 179.577 441.176 180.398 440.896C181.219 440.597 182.097 440.448 183.03 440.448C184.747 440.448 185.998 440.859 186.782 441.68C187.566 442.501 187.958 443.771 187.958 445.488V454H183.45V445.852C183.45 445.105 183.291 444.573 182.974 444.256C182.657 443.939 182.087 443.78 181.266 443.78C180.781 443.78 180.286 443.892 179.782 444.116C179.278 444.34 178.858 444.62 178.522 444.956V454H174.014ZM203.458 454.28C198.567 454.28 196.122 451.881 196.122 447.084V443.416C196.122 441.923 196.449 440.597 197.102 439.44C197.774 438.264 198.726 437.349 199.958 436.696C201.19 436.024 202.655 435.688 204.354 435.688C205.325 435.688 206.165 435.744 206.874 435.856C207.602 435.968 208.293 436.155 208.946 436.416V440.084C208.33 439.823 207.677 439.636 206.986 439.524C206.295 439.393 205.539 439.328 204.718 439.328C203.281 439.328 202.189 439.627 201.442 440.224C200.714 440.803 200.35 441.559 200.35 442.492V443.192C200.891 442.819 201.545 442.539 202.31 442.352C203.075 442.147 203.775 442.044 204.41 442.044C206.575 442.044 208.162 442.567 209.17 443.612C210.197 444.639 210.71 446.123 210.71 448.064C210.71 449.277 210.458 450.351 209.954 451.284C209.469 452.217 208.694 452.955 207.63 453.496C206.566 454.019 205.175 454.28 203.458 454.28ZM203.486 451.032C204.55 451.032 205.343 450.78 205.866 450.276C206.407 449.772 206.678 449.091 206.678 448.232C206.678 447.299 206.445 446.589 205.978 446.104C205.511 445.619 204.699 445.376 203.542 445.376C203.001 445.376 202.45 445.469 201.89 445.656C201.349 445.843 200.835 446.085 200.35 446.384V447.896C200.35 449.987 201.395 451.032 203.486 451.032ZM220.818 454.504C218.802 454.504 217.178 454.14 215.946 453.412C214.714 452.684 213.818 451.62 213.258 450.22C212.717 448.801 212.446 447.093 212.446 445.096C212.446 443.099 212.717 441.4 213.258 440C213.818 438.6 214.714 437.536 215.946 436.808C217.178 436.061 218.802 435.688 220.818 435.688C222.853 435.688 224.477 436.061 225.69 436.808C226.922 437.536 227.818 438.6 228.378 440C228.938 441.4 229.218 443.099 229.218 445.096C229.218 447.093 228.938 448.801 228.378 450.22C227.818 451.62 226.922 452.684 225.69 453.412C224.477 454.14 222.853 454.504 220.818 454.504ZM220.818 450.64C222.237 450.64 223.217 450.173 223.758 449.24C224.318 448.288 224.598 446.907 224.598 445.096C224.598 443.285 224.318 441.913 223.758 440.98C223.217 440.028 222.237 439.552 220.818 439.552C219.399 439.552 218.41 440.028 217.85 440.98C217.309 441.913 217.038 443.285 217.038 445.096C217.038 446.907 217.309 448.288 217.85 449.24C218.41 450.173 219.399 450.64 220.818 450.64ZM242.461 454.28C241.397 454.28 240.389 454.205 239.437 454.056C238.485 453.907 237.729 453.72 237.169 453.496V450.052C237.823 450.332 238.579 450.547 239.437 450.696C240.296 450.845 241.061 450.92 241.733 450.92C242.536 450.92 243.115 450.883 243.469 450.808C243.843 450.733 244.029 450.528 244.029 450.192C244.029 449.819 243.731 449.539 243.133 449.352C242.536 449.165 241.715 448.895 240.669 448.54C239.456 448.111 238.532 447.616 237.897 447.056C237.281 446.477 236.973 445.628 236.973 444.508C236.973 443.201 237.459 442.203 238.429 441.512C239.419 440.803 240.987 440.448 243.133 440.448C243.973 440.448 244.804 440.513 245.625 440.644C246.447 440.775 247.119 440.924 247.641 441.092V444.48C247.119 444.237 246.521 444.06 245.849 443.948C245.177 443.836 244.571 443.78 244.029 443.78C243.339 443.78 242.751 443.827 242.265 443.92C241.799 443.995 241.565 444.191 241.565 444.508C241.565 444.863 241.827 445.115 242.349 445.264C242.872 445.395 243.628 445.619 244.617 445.936C245.663 446.253 246.475 446.599 247.053 446.972C247.632 447.327 248.043 447.756 248.285 448.26C248.528 448.764 248.649 449.399 248.649 450.164C248.649 451.489 248.127 452.507 247.081 453.216C246.036 453.925 244.496 454.28 242.461 454.28ZM257.634 454.28C255.319 454.28 253.462 453.711 252.062 452.572C250.662 451.415 249.962 449.679 249.962 447.364C249.962 445.255 250.54 443.575 251.698 442.324C252.855 441.073 254.591 440.448 256.906 440.448C259.015 440.448 260.648 440.989 261.806 442.072C262.963 443.155 263.542 444.611 263.542 446.44V448.82H254.134C254.339 449.697 254.815 450.313 255.562 450.668C256.327 451.004 257.363 451.172 258.67 451.172C259.398 451.172 260.135 451.107 260.882 450.976C261.647 450.845 262.282 450.677 262.786 450.472V453.412C262.151 453.711 261.395 453.925 260.518 454.056C259.64 454.205 258.679 454.28 257.634 454.28ZM254.134 446.216H259.622V445.628C259.622 444.975 259.426 444.461 259.034 444.088C258.642 443.696 257.979 443.5 257.046 443.5C255.963 443.5 255.207 443.724 254.778 444.172C254.348 444.601 254.134 445.283 254.134 446.216ZM272.834 454.28C270.464 454.28 268.606 453.701 267.262 452.544C265.937 451.387 265.274 449.66 265.274 447.364C265.274 445.031 265.965 443.295 267.346 442.156C268.746 441.017 270.604 440.448 272.918 440.448C273.889 440.448 274.729 440.523 275.438 440.672C276.166 440.803 276.866 441.027 277.538 441.344V444.536C276.493 444.032 275.27 443.78 273.87 443.78C272.564 443.78 271.565 444.041 270.874 444.564C270.202 445.087 269.866 446.02 269.866 447.364C269.866 448.615 270.184 449.529 270.818 450.108C271.453 450.668 272.461 450.948 273.842 450.948C275.205 450.948 276.446 450.668 277.566 450.108V453.44C276.894 453.739 276.166 453.953 275.382 454.084C274.617 454.215 273.768 454.28 272.834 454.28ZM286.778 454.28C284.22 454.28 282.335 453.692 281.122 452.516C279.908 451.321 279.302 449.604 279.302 447.364C279.302 445.143 279.908 443.435 281.122 442.24C282.354 441.045 284.239 440.448 286.778 440.448C289.335 440.448 291.22 441.045 292.434 442.24C293.666 443.435 294.282 445.143 294.282 447.364C294.282 449.604 293.675 451.321 292.462 452.516C291.248 453.692 289.354 454.28 286.778 454.28ZM286.778 450.752C287.823 450.752 288.57 450.491 289.018 449.968C289.466 449.445 289.69 448.577 289.69 447.364C289.69 446.151 289.466 445.283 289.018 444.76C288.57 444.237 287.823 443.976 286.778 443.976C285.751 443.976 285.014 444.237 284.566 444.76C284.118 445.283 283.894 446.151 283.894 447.364C283.894 448.577 284.118 449.445 284.566 449.968C285.014 450.491 285.751 450.752 286.778 450.752ZM296.569 454V440.728H300.769L300.909 441.876C301.45 441.503 302.131 441.176 302.953 440.896C303.774 440.597 304.651 440.448 305.585 440.448C307.302 440.448 308.553 440.859 309.337 441.68C310.121 442.501 310.513 443.771 310.513 445.488V454H306.005V445.852C306.005 445.105 305.846 444.573 305.529 444.256C305.211 443.939 304.642 443.78 303.821 443.78C303.335 443.78 302.841 443.892 302.337 444.116C301.833 444.34 301.413 444.62 301.077 444.956V454H296.569ZM318.629 454.28C317.341 454.28 316.24 454.075 315.325 453.664C314.41 453.253 313.71 452.581 313.225 451.648C312.74 450.696 312.497 449.427 312.497 447.84C312.497 446.235 312.777 444.891 313.337 443.808C313.897 442.707 314.662 441.876 315.633 441.316C316.622 440.737 317.752 440.448 319.021 440.448C319.712 440.448 320.328 440.523 320.869 440.672C321.429 440.821 321.952 441.045 322.437 441.344V435.128H326.945V454H323.053L322.801 452.88C322.26 453.347 321.653 453.701 320.981 453.944C320.309 454.168 319.525 454.28 318.629 454.28ZM319.917 451.004C320.906 451.004 321.746 450.668 322.437 449.996V444.62C321.802 444.041 320.99 443.752 320.001 443.752C319.049 443.752 318.321 444.116 317.817 444.844C317.332 445.553 317.089 446.561 317.089 447.868C317.089 449.137 317.322 449.977 317.789 450.388C318.274 450.799 318.984 451.004 319.917 451.004ZM334.719 454.28C333.655 454.28 332.647 454.205 331.695 454.056C330.743 453.907 329.987 453.72 329.427 453.496V450.052C330.081 450.332 330.837 450.547 331.695 450.696C332.554 450.845 333.319 450.92 333.991 450.92C334.794 450.92 335.373 450.883 335.727 450.808C336.101 450.733 336.287 450.528 336.287 450.192C336.287 449.819 335.989 449.539 335.391 449.352C334.794 449.165 333.973 448.895 332.927 448.54C331.714 448.111 330.79 447.616 330.155 447.056C329.539 446.477 329.231 445.628 329.231 444.508C329.231 443.201 329.717 442.203 330.687 441.512C331.677 440.803 333.245 440.448 335.391 440.448C336.231 440.448 337.062 440.513 337.883 440.644C338.705 440.775 339.377 440.924 339.899 441.092V444.48C339.377 444.237 338.779 444.06 338.107 443.948C337.435 443.836 336.829 443.78 336.287 443.78C335.597 443.78 335.009 443.827 334.523 443.92C334.057 443.995 333.823 444.191 333.823 444.508C333.823 444.863 334.085 445.115 334.607 445.264C335.13 445.395 335.886 445.619 336.875 445.936C337.921 446.253 338.733 446.599 339.311 446.972C339.89 447.327 340.301 447.756 340.543 448.26C340.786 448.764 340.907 449.399 340.907 450.164C340.907 451.489 340.385 452.507 339.339 453.216C338.294 453.925 336.754 454.28 334.719 454.28Z" fill="white"/>
<path d="M69.6802 511L66.3802 496.832H69.8562L71.7262 505.368L73.6622 498.834V496.832H76.5662L79.0082 505.39L80.9662 496.832H84.4422L81.1642 511H77.8862L75.5102 502.816L72.9582 511H69.6802ZM90.3907 511.22C88.572 511.22 87.1127 510.773 86.0127 509.878C84.9127 508.969 84.3627 507.605 84.3627 505.786C84.3627 504.129 84.8173 502.809 85.7267 501.826C86.636 500.843 88 500.352 89.8187 500.352C91.476 500.352 92.7593 500.777 93.6687 501.628C94.578 502.479 95.0327 503.623 95.0327 505.06V506.93H87.6407C87.802 507.619 88.176 508.103 88.7627 508.382C89.364 508.646 90.178 508.778 91.2047 508.778C91.7767 508.778 92.356 508.727 92.9427 508.624C93.544 508.521 94.0427 508.389 94.4387 508.228V510.538C93.94 510.773 93.346 510.941 92.6567 511.044C91.9673 511.161 91.212 511.22 90.3907 511.22ZM87.6407 504.884H91.9527V504.422C91.9527 503.909 91.7987 503.505 91.4907 503.212C91.1827 502.904 90.662 502.75 89.9287 502.75C89.078 502.75 88.484 502.926 88.1467 503.278C87.8093 503.615 87.6407 504.151 87.6407 504.884ZM96.3939 501.408L97.6919 496.612H100.684L99.0559 501.408H96.3939ZM105.696 511.22C104.552 511.22 103.731 510.971 103.232 510.472C102.734 509.973 102.484 509.174 102.484 508.074V496.172H106.026V507.722C106.026 508.059 106.092 508.294 106.224 508.426C106.371 508.543 106.584 508.602 106.862 508.602C107.258 508.602 107.61 508.551 107.918 508.448V510.846C107.581 510.978 107.244 511.073 106.906 511.132C106.584 511.191 106.18 511.22 105.696 511.22ZM111.905 511.22C110.761 511.22 109.94 510.971 109.441 510.472C108.943 509.973 108.693 509.174 108.693 508.074V496.172H112.235V507.722C112.235 508.059 112.301 508.294 112.433 508.426C112.58 508.543 112.793 508.602 113.071 508.602C113.467 508.602 113.819 508.551 114.127 508.448V510.846C113.79 510.978 113.453 511.073 113.115 511.132C112.793 511.191 112.389 511.22 111.905 511.22ZM125.621 511.22C123.612 511.22 122.131 510.758 121.177 509.834C120.224 508.895 119.747 507.546 119.747 505.786C119.747 504.041 120.224 502.699 121.177 501.76C122.145 500.821 123.627 500.352 125.621 500.352C127.631 500.352 129.112 500.821 130.065 501.76C131.033 502.699 131.517 504.041 131.517 505.786C131.517 507.546 131.041 508.895 130.087 509.834C129.134 510.758 127.645 511.22 125.621 511.22ZM125.621 508.448C126.443 508.448 127.029 508.243 127.381 507.832C127.733 507.421 127.909 506.739 127.909 505.786C127.909 504.833 127.733 504.151 127.381 503.74C127.029 503.329 126.443 503.124 125.621 503.124C124.815 503.124 124.235 503.329 123.883 503.74C123.531 504.151 123.355 504.833 123.355 505.786C123.355 506.739 123.531 507.421 123.883 507.832C124.235 508.243 124.815 508.448 125.621 508.448ZM133.314 511V500.572H136.614L136.724 501.474C137.15 501.181 137.685 500.924 138.33 500.704C138.976 500.469 139.665 500.352 140.398 500.352C141.748 500.352 142.73 500.675 143.346 501.32C143.962 501.965 144.27 502.963 144.27 504.312V511H140.728V504.598C140.728 504.011 140.604 503.593 140.354 503.344C140.105 503.095 139.658 502.97 139.012 502.97C138.631 502.97 138.242 503.058 137.846 503.234C137.45 503.41 137.12 503.63 136.856 503.894V511H133.314ZM149.61 511.22C148.466 511.22 147.645 510.971 147.146 510.472C146.648 509.973 146.398 509.174 146.398 508.074V496.172H149.94V507.722C149.94 508.059 150.006 508.294 150.138 508.426C150.285 508.543 150.498 508.602 150.776 508.602C151.172 508.602 151.524 508.551 151.832 508.448V510.846C151.495 510.978 151.158 511.073 150.82 511.132C150.498 511.191 150.094 511.22 149.61 511.22ZM154.828 514.872C154.3 514.872 153.846 514.843 153.464 514.784C153.098 514.74 152.731 514.645 152.364 514.498V512.034C152.614 512.122 152.841 512.181 153.046 512.21C153.266 512.239 153.486 512.254 153.706 512.254C154.308 512.254 154.755 512.144 155.048 511.924C155.356 511.719 155.664 511.345 155.972 510.802L151.286 500.572H155.004L157.754 507.194L160.46 500.572H164.156L160.174 510.142C159.778 511.095 159.338 511.924 158.854 512.628C158.37 513.347 157.806 513.897 157.16 514.278C156.515 514.674 155.738 514.872 154.828 514.872ZM175.746 511.22C173.883 511.22 172.424 510.765 171.368 509.856C170.327 508.947 169.806 507.59 169.806 505.786C169.806 503.953 170.349 502.589 171.434 501.694C172.534 500.799 173.993 500.352 175.812 500.352C176.575 500.352 177.235 500.411 177.792 500.528C178.364 500.631 178.914 500.807 179.442 501.056V503.564C178.621 503.168 177.66 502.97 176.56 502.97C175.533 502.97 174.749 503.175 174.206 503.586C173.678 503.997 173.414 504.73 173.414 505.786C173.414 506.769 173.663 507.487 174.162 507.942C174.661 508.382 175.453 508.602 176.538 508.602C177.609 508.602 178.584 508.382 179.464 507.942V510.56C178.936 510.795 178.364 510.963 177.748 511.066C177.147 511.169 176.479 511.22 175.746 511.22ZM186.702 511.22C184.692 511.22 183.211 510.758 182.258 509.834C181.304 508.895 180.828 507.546 180.828 505.786C180.828 504.041 181.304 502.699 182.258 501.76C183.226 500.821 184.707 500.352 186.702 500.352C188.711 500.352 190.192 500.821 191.146 501.76C192.114 502.699 192.598 504.041 192.598 505.786C192.598 507.546 192.121 508.895 191.168 509.834C190.214 510.758 188.726 511.22 186.702 511.22ZM186.702 508.448C187.523 508.448 188.11 508.243 188.462 507.832C188.814 507.421 188.99 506.739 188.99 505.786C188.99 504.833 188.814 504.151 188.462 503.74C188.11 503.329 187.523 503.124 186.702 503.124C185.895 503.124 185.316 503.329 184.964 503.74C184.612 504.151 184.436 504.833 184.436 505.786C184.436 506.739 184.612 507.421 184.964 507.832C185.316 508.243 185.895 508.448 186.702 508.448ZM197.98 511.22C196.748 511.22 195.788 510.875 195.098 510.186C194.409 509.482 194.064 508.463 194.064 507.128V500.572H197.606V506.93C197.606 507.517 197.746 507.949 198.024 508.228C198.318 508.492 198.75 508.624 199.322 508.624C199.748 508.624 200.151 508.536 200.532 508.36C200.914 508.184 201.229 507.964 201.478 507.7V500.572H205.02V511H201.72L201.61 510.12C201.185 510.443 200.672 510.707 200.07 510.912C199.469 511.117 198.772 511.22 197.98 511.22ZM207.264 511V500.572H210.564L210.674 501.474C211.099 501.181 211.634 500.924 212.28 500.704C212.925 500.469 213.614 500.352 214.348 500.352C215.697 500.352 216.68 500.675 217.296 501.32C217.912 501.965 218.22 502.963 218.22 504.312V511H214.678V504.598C214.678 504.011 214.553 503.593 214.304 503.344C214.054 503.095 213.607 502.97 212.962 502.97C212.58 502.97 212.192 503.058 211.796 503.234C211.4 503.41 211.07 503.63 210.806 503.894V511H207.264ZM224.638 511.22C223.347 511.22 222.394 510.89 221.778 510.23C221.176 509.57 220.876 508.661 220.876 507.502V503.256H219.468V500.572H220.876V498.394L224.418 497.448V500.572H226.948L226.794 503.256H224.418V507.26C224.418 507.759 224.542 508.111 224.792 508.316C225.041 508.507 225.415 508.602 225.914 508.602C226.339 508.602 226.772 508.529 227.212 508.382V510.78C226.522 511.073 225.664 511.22 224.638 511.22ZM233.303 515.752V500.572H236.383L236.559 501.474C236.984 501.122 237.461 500.851 237.989 500.66C238.517 500.455 239.133 500.352 239.837 500.352C241.318 500.352 242.491 500.755 243.357 501.562C244.222 502.354 244.655 503.689 244.655 505.566C244.655 507.429 244.207 508.837 243.313 509.79C242.433 510.743 241.215 511.22 239.661 511.22C238.561 511.22 237.622 510.993 236.845 510.538V515.752H233.303ZM238.759 508.624C240.284 508.624 241.047 507.583 241.047 505.5C241.047 504.503 240.871 503.828 240.519 503.476C240.167 503.124 239.602 502.948 238.825 502.948C238.077 502.948 237.417 503.212 236.845 503.74V507.964C237.123 508.169 237.402 508.331 237.681 508.448C237.974 508.565 238.333 508.624 238.759 508.624ZM250.037 511.22C248.805 511.22 247.844 510.875 247.155 510.186C246.466 509.482 246.121 508.463 246.121 507.128V500.572H249.663V506.93C249.663 507.517 249.802 507.949 250.081 508.228C250.374 508.492 250.807 508.624 251.379 508.624C251.804 508.624 252.208 508.536 252.589 508.36C252.97 508.184 253.286 507.964 253.535 507.7V500.572H257.077V511H253.777L253.667 510.12C253.242 510.443 252.728 510.707 252.127 510.912C251.526 511.117 250.829 511.22 250.037 511.22ZM263.192 511.22C262.356 511.22 261.564 511.161 260.816 511.044C260.068 510.927 259.474 510.78 259.034 510.604V507.898C259.548 508.118 260.142 508.287 260.816 508.404C261.491 508.521 262.092 508.58 262.62 508.58C263.251 508.58 263.706 508.551 263.984 508.492C264.278 508.433 264.424 508.272 264.424 508.008C264.424 507.715 264.19 507.495 263.72 507.348C263.251 507.201 262.606 506.989 261.784 506.71C260.831 506.373 260.105 505.984 259.606 505.544C259.122 505.089 258.88 504.422 258.88 503.542C258.88 502.515 259.262 501.731 260.024 501.188C260.802 500.631 262.034 500.352 263.72 500.352C264.38 500.352 265.033 500.403 265.678 500.506C266.324 500.609 266.852 500.726 267.262 500.858V503.52C266.852 503.329 266.382 503.19 265.854 503.102C265.326 503.014 264.85 502.97 264.424 502.97C263.882 502.97 263.42 503.007 263.038 503.08C262.672 503.139 262.488 503.293 262.488 503.542C262.488 503.821 262.694 504.019 263.104 504.136C263.515 504.239 264.109 504.415 264.886 504.664C265.708 504.913 266.346 505.185 266.8 505.478C267.255 505.757 267.578 506.094 267.768 506.49C267.959 506.886 268.054 507.385 268.054 507.986C268.054 509.027 267.644 509.827 266.822 510.384C266.001 510.941 264.791 511.22 263.192 511.22ZM269.848 511V496.172H273.39V501.342C273.786 501.049 274.277 500.814 274.864 500.638C275.45 500.447 276.081 500.352 276.756 500.352C278.149 500.352 279.168 500.682 279.814 501.342C280.474 502.002 280.804 503.014 280.804 504.378V511H277.262V504.62C277.262 504.019 277.137 503.593 276.888 503.344C276.638 503.095 276.191 502.97 275.546 502.97C275.164 502.97 274.776 503.058 274.38 503.234C273.984 503.41 273.654 503.63 273.39 503.894V511H269.848ZM282.492 506.27V503.52H291.182V506.27H282.492ZM296.572 511.22C295.34 511.22 294.38 510.875 293.69 510.186C293.001 509.482 292.656 508.463 292.656 507.128V500.572H296.198V506.93C296.198 507.517 296.338 507.949 296.616 508.228C296.91 508.492 297.342 508.624 297.914 508.624C298.34 508.624 298.743 508.536 299.124 508.36C299.506 508.184 299.821 507.964 300.07 507.7V500.572H303.612V511H300.312L300.202 510.12C299.777 510.443 299.264 510.707 298.662 510.912C298.061 511.117 297.364 511.22 296.572 511.22ZM305.855 515.752V500.572H308.935L309.111 501.474C309.537 501.122 310.013 500.851 310.541 500.66C311.069 500.455 311.685 500.352 312.389 500.352C313.871 500.352 315.044 500.755 315.909 501.562C316.775 502.354 317.207 503.689 317.207 505.566C317.207 507.429 316.76 508.837 315.865 509.79C314.985 510.743 313.768 511.22 312.213 511.22C311.113 511.22 310.175 510.993 309.397 510.538V515.752H305.855ZM311.311 508.624C312.837 508.624 313.599 507.583 313.599 505.5C313.599 504.503 313.423 503.828 313.071 503.476C312.719 503.124 312.155 502.948 311.377 502.948C310.629 502.948 309.969 503.212 309.397 503.74V507.964C309.676 508.169 309.955 508.331 310.233 508.448C310.527 508.565 310.886 508.624 311.311 508.624ZM322.768 511.22C321.932 511.22 321.14 511.161 320.392 511.044C319.644 510.927 319.05 510.78 318.61 510.604V507.898C319.124 508.118 319.718 508.287 320.392 508.404C321.067 508.521 321.668 508.58 322.196 508.58C322.827 508.58 323.282 508.551 323.56 508.492C323.854 508.433 324 508.272 324 508.008C324 507.715 323.766 507.495 323.296 507.348C322.827 507.201 322.182 506.989 321.36 506.71C320.407 506.373 319.681 505.984 319.182 505.544C318.698 505.089 318.456 504.422 318.456 503.542C318.456 502.515 318.838 501.731 319.6 501.188C320.378 500.631 321.61 500.352 323.296 500.352C323.956 500.352 324.609 500.403 325.254 500.506C325.9 500.609 326.428 500.726 326.838 500.858V503.52C326.428 503.329 325.958 503.19 325.43 503.102C324.902 503.014 324.426 502.97 324 502.97C323.458 502.97 322.996 503.007 322.614 503.08C322.248 503.139 322.064 503.293 322.064 503.542C322.064 503.821 322.27 504.019 322.68 504.136C323.091 504.239 323.685 504.415 324.462 504.664C325.284 504.913 325.922 505.185 326.376 505.478C326.831 505.757 327.154 506.094 327.344 506.49C327.535 506.886 327.63 507.385 327.63 507.986C327.63 509.027 327.22 509.827 326.398 510.384C325.577 510.941 324.367 511.22 322.768 511.22ZM121.112 542L118.362 531.572H121.838L123.246 537.556L124.72 533.002V531.572H127.382L129.098 537.556L130.462 531.572H133.938L131.188 542H127.976L126.194 536.588L124.368 542H121.112ZM135.662 529.922V527.26H139.512V529.922H135.662ZM135.948 542V534.19H134.408L134.716 531.572H139.49V542H135.948ZM146.037 542.22C144.746 542.22 143.793 541.89 143.177 541.23C142.576 540.57 142.275 539.661 142.275 538.502V534.256H140.867V531.572H142.275V529.394L145.817 528.448V531.572H148.347L148.193 534.256H145.817V538.26C145.817 538.759 145.942 539.111 146.191 539.316C146.44 539.507 146.814 539.602 147.313 539.602C147.738 539.602 148.171 539.529 148.611 539.382V541.78C147.922 542.073 147.064 542.22 146.037 542.22ZM149.976 542V527.172H153.518V532.342C153.914 532.049 154.405 531.814 154.992 531.638C155.578 531.447 156.209 531.352 156.884 531.352C158.277 531.352 159.296 531.682 159.942 532.342C160.602 533.002 160.932 534.014 160.932 535.378V542H157.39V535.62C157.39 535.019 157.265 534.593 157.016 534.344C156.766 534.095 156.319 533.97 155.674 533.97C155.292 533.97 154.904 534.058 154.508 534.234C154.112 534.41 153.782 534.63 153.518 534.894V542H149.976ZM172.274 545.872C171.761 545.872 171.218 545.85 170.646 545.806C170.074 545.762 169.531 545.696 169.018 545.608C168.505 545.52 168.065 545.417 167.698 545.3V542.88C168.285 543.071 168.989 543.217 169.81 543.32C170.631 543.423 171.387 543.474 172.076 543.474C172.971 543.474 173.638 543.423 174.078 543.32C174.533 543.232 174.76 543.071 174.76 542.836C174.76 542.631 174.672 542.491 174.496 542.418C174.32 542.345 173.975 542.308 173.462 542.308H170.58C169.641 542.308 168.908 542.139 168.38 541.802C167.867 541.465 167.61 540.973 167.61 540.328C167.61 539.888 167.742 539.47 168.006 539.074C168.285 538.678 168.688 538.385 169.216 538.194C168.615 537.886 168.16 537.497 167.852 537.028C167.544 536.559 167.39 535.965 167.39 535.246C167.39 533.897 167.823 532.914 168.688 532.298C169.568 531.667 170.851 531.352 172.538 531.352C172.89 531.352 173.279 531.381 173.704 531.44C174.144 531.484 174.467 531.528 174.672 531.572H178.676L178.588 533.772H177.07C177.437 534.139 177.62 534.681 177.62 535.4C177.62 536.412 177.29 537.226 176.63 537.842C175.985 538.458 175.002 538.766 173.682 538.766C173.462 538.766 173.242 538.759 173.022 538.744C172.817 538.715 172.611 538.693 172.406 538.678C172.025 538.722 171.695 538.803 171.416 538.92C171.152 539.037 171.02 539.206 171.02 539.426C171.02 539.602 171.086 539.719 171.218 539.778C171.365 539.837 171.577 539.866 171.856 539.866H174.518C175.589 539.866 176.417 540.115 177.004 540.614C177.605 541.098 177.906 541.809 177.906 542.748C177.906 544.831 176.029 545.872 172.274 545.872ZM172.56 536.808C173.337 536.808 173.873 536.676 174.166 536.412C174.459 536.148 174.606 535.708 174.606 535.092C174.606 534.476 174.452 534.029 174.144 533.75C173.851 533.471 173.323 533.332 172.56 533.332C171.841 533.332 171.321 533.471 170.998 533.75C170.69 534.014 170.536 534.461 170.536 535.092C170.536 535.679 170.683 536.111 170.976 536.39C171.269 536.669 171.797 536.808 172.56 536.808ZM185.617 542.22C183.607 542.22 182.126 541.758 181.173 540.834C180.219 539.895 179.743 538.546 179.743 536.786C179.743 535.041 180.219 533.699 181.173 532.76C182.141 531.821 183.622 531.352 185.617 531.352C187.626 531.352 189.107 531.821 190.061 532.76C191.029 533.699 191.513 535.041 191.513 536.786C191.513 538.546 191.036 539.895 190.083 540.834C189.129 541.758 187.641 542.22 185.617 542.22ZM185.617 539.448C186.438 539.448 187.025 539.243 187.377 538.832C187.729 538.421 187.905 537.739 187.905 536.786C187.905 535.833 187.729 535.151 187.377 534.74C187.025 534.329 186.438 534.124 185.617 534.124C184.81 534.124 184.231 534.329 183.879 534.74C183.527 535.151 183.351 535.833 183.351 536.786C183.351 537.739 183.527 538.421 183.879 538.832C184.231 539.243 184.81 539.448 185.617 539.448ZM198.744 542.22C196.734 542.22 195.253 541.758 194.3 540.834C193.346 539.895 192.87 538.546 192.87 536.786C192.87 535.041 193.346 533.699 194.3 532.76C195.268 531.821 196.749 531.352 198.744 531.352C200.753 531.352 202.234 531.821 203.188 532.76C204.156 533.699 204.64 535.041 204.64 536.786C204.64 538.546 204.163 539.895 203.21 540.834C202.256 541.758 200.768 542.22 198.744 542.22ZM198.744 539.448C199.565 539.448 200.152 539.243 200.504 538.832C200.856 538.421 201.032 537.739 201.032 536.786C201.032 535.833 200.856 535.151 200.504 534.74C200.152 534.329 199.565 534.124 198.744 534.124C197.937 534.124 197.358 534.329 197.006 534.74C196.654 535.151 196.478 535.833 196.478 536.786C196.478 537.739 196.654 538.421 197.006 538.832C197.358 539.243 197.937 539.448 198.744 539.448ZM210.814 542.22C209.802 542.22 208.937 542.059 208.218 541.736C207.5 541.413 206.95 540.885 206.568 540.152C206.187 539.404 205.996 538.407 205.996 537.16C205.996 535.899 206.216 534.843 206.656 533.992C207.096 533.127 207.698 532.474 208.46 532.034C209.238 531.579 210.125 531.352 211.122 531.352C211.665 531.352 212.149 531.411 212.574 531.528C213.014 531.645 213.425 531.821 213.806 532.056V527.172H217.348V542H214.29L214.092 541.12C213.667 541.487 213.19 541.765 212.662 541.956C212.134 542.132 211.518 542.22 210.814 542.22ZM211.826 539.646C212.604 539.646 213.264 539.382 213.806 538.854V534.63C213.308 534.175 212.67 533.948 211.892 533.948C211.144 533.948 210.572 534.234 210.176 534.806C209.795 535.363 209.604 536.155 209.604 537.182C209.604 538.179 209.788 538.839 210.154 539.162C210.536 539.485 211.093 539.646 211.826 539.646ZM224.795 542V534.256H223.409V531.572H224.795V530.714C224.795 529.585 225.118 528.653 225.763 527.92C226.409 527.187 227.369 526.82 228.645 526.82C229.173 526.82 229.643 526.864 230.053 526.952C230.464 527.025 230.853 527.135 231.219 527.282V529.658C230.999 529.585 230.787 529.526 230.581 529.482C230.376 529.438 230.149 529.416 229.899 529.416C229.327 529.416 228.924 529.526 228.689 529.746C228.455 529.951 228.337 530.296 228.337 530.78V531.572H230.911L230.757 534.256H228.337V542H224.795ZM237.222 542.22C235.213 542.22 233.731 541.758 232.778 540.834C231.825 539.895 231.348 538.546 231.348 536.786C231.348 535.041 231.825 533.699 232.778 532.76C233.746 531.821 235.227 531.352 237.222 531.352C239.231 531.352 240.713 531.821 241.666 532.76C242.634 533.699 243.118 535.041 243.118 536.786C243.118 538.546 242.641 539.895 241.688 540.834C240.735 541.758 239.246 542.22 237.222 542.22ZM237.222 539.448C238.043 539.448 238.63 539.243 238.982 538.832C239.334 538.421 239.51 537.739 239.51 536.786C239.51 535.833 239.334 535.151 238.982 534.74C238.63 534.329 238.043 534.124 237.222 534.124C236.415 534.124 235.836 534.329 235.484 534.74C235.132 535.151 234.956 535.833 234.956 536.786C234.956 537.739 235.132 538.421 235.484 538.832C235.836 539.243 236.415 539.448 237.222 539.448ZM244.915 542V531.572H248.281L248.391 532.54C248.846 532.261 249.41 532.012 250.085 531.792C250.76 531.557 251.434 531.411 252.109 531.352V534.014C251.728 534.058 251.302 534.131 250.833 534.234C250.378 534.322 249.938 534.432 249.513 534.564C249.102 534.696 248.75 534.835 248.457 534.982V542H244.915ZM253.444 542V531.572H256.722L256.832 532.496C257.302 532.159 257.83 531.887 258.416 531.682C259.003 531.462 259.634 531.352 260.308 531.352C261.012 531.352 261.562 531.462 261.958 531.682C262.354 531.887 262.662 532.181 262.882 532.562C263.366 532.21 263.909 531.924 264.51 531.704C265.126 531.469 265.845 531.352 266.666 531.352C267.884 531.352 268.778 531.667 269.35 532.298C269.922 532.929 270.208 533.889 270.208 535.18V542H266.71V535.598C266.71 535.026 266.586 534.615 266.336 534.366C266.102 534.102 265.713 533.97 265.17 533.97C264.833 533.97 264.503 534.043 264.18 534.19C263.858 534.322 263.586 534.513 263.366 534.762C263.396 534.923 263.41 535.077 263.41 535.224C263.425 535.371 263.432 535.547 263.432 535.752V542H260.132V535.554C260.132 535.026 260.037 534.63 259.846 534.366C259.67 534.102 259.326 533.97 258.812 533.97C258.446 533.97 258.101 534.065 257.778 534.256C257.456 534.447 257.162 534.667 256.898 534.916V542H253.444ZM272.131 538.128L271.999 531.55V527.832H275.541V531.55L275.409 538.128H272.131ZM271.911 542V539.448H275.629V542H271.911Z" fill="white"/>
<rect x="17" y="748" width="361" height="49" rx="24.5" fill="#7D27F5"/>
<path d="M180.363 779V768.052H182.709L187.367 774.597V768.052H190.121V779H187.758L183.1 772.472V779H180.363ZM196.169 779.17C194.764 779.17 193.636 778.824 192.786 778.133C191.936 777.43 191.511 776.376 191.511 774.971C191.511 773.69 191.862 772.67 192.565 771.911C193.268 771.152 194.322 770.772 195.727 770.772C197.008 770.772 197.999 771.101 198.702 771.758C199.405 772.415 199.756 773.299 199.756 774.41V775.855H194.044C194.169 776.388 194.458 776.762 194.911 776.977C195.376 777.181 196.005 777.283 196.798 777.283C197.24 777.283 197.688 777.243 198.141 777.164C198.606 777.085 198.991 776.983 199.297 776.858V778.643C198.912 778.824 198.453 778.955 197.92 779.034C197.387 779.125 196.804 779.17 196.169 779.17ZM194.044 774.274H197.376V773.917C197.376 773.52 197.257 773.209 197.019 772.982C196.781 772.744 196.379 772.625 195.812 772.625C195.155 772.625 194.696 772.761 194.435 773.033C194.174 773.294 194.044 773.707 194.044 774.274ZM199.959 779L203.053 774.903L200.078 770.942H203.053L204.549 772.965L206.045 770.942H209.02L206.045 774.903L209.139 779H206.147L204.549 776.875L202.951 779H199.959ZM213.328 779.17C212.331 779.17 211.594 778.915 211.118 778.405C210.653 777.895 210.421 777.192 210.421 776.297V773.016H209.333V770.942H210.421V769.259L213.158 768.528V770.942H215.113L214.994 773.016H213.158V776.11C213.158 776.495 213.254 776.767 213.447 776.926C213.64 777.073 213.929 777.147 214.314 777.147C214.643 777.147 214.977 777.09 215.317 776.977V778.83C214.784 779.057 214.121 779.17 213.328 779.17Z" fill="white"/>
<path d="M88.3497 89.33C84.6317 89.33 81.7937 88.384 79.8357 86.492C77.8997 84.578 76.9317 81.927 76.9317 78.539C76.9317 74.997 77.8777 72.258 79.7697 70.322C81.6837 68.386 84.5327 67.418 88.3167 67.418C89.6147 67.418 90.7697 67.517 91.7817 67.715C92.8157 67.913 93.8057 68.177 94.7517 68.507V73.16C92.8377 72.368 90.8247 71.972 88.7127 71.972C86.5127 71.972 84.8957 72.5 83.8617 73.556C82.8497 74.612 82.3437 76.273 82.3437 78.539C82.3437 80.695 82.8827 82.279 83.9607 83.291C85.0387 84.303 86.6447 84.809 88.7787 84.809C89.8127 84.809 90.8357 84.721 91.8477 84.545C92.8597 84.347 93.8387 84.05 94.7847 83.654V88.34C93.8607 88.648 92.8817 88.89 91.8477 89.066C90.8137 89.242 89.6477 89.33 88.3497 89.33ZM97.4755 89V66.758H102.788V74.513C103.382 74.073 104.119 73.721 104.999 73.457C105.879 73.171 106.825 73.028 107.837 73.028C109.927 73.028 111.456 73.523 112.424 74.513C113.414 75.503 113.909 77.021 113.909 79.067V89H108.596V79.43C108.596 78.528 108.409 77.89 108.035 77.516C107.661 77.142 106.99 76.955 106.022 76.955C105.45 76.955 104.867 77.087 104.273 77.351C103.679 77.615 103.184 77.945 102.788 78.341V89H97.4755ZM121.502 89.33C120.512 89.33 119.588 89.154 118.73 88.802C117.894 88.45 117.223 87.911 116.717 87.185C116.211 86.437 115.958 85.513 115.958 84.413C115.958 82.807 116.497 81.553 117.575 80.651C118.675 79.727 120.314 79.265 122.492 79.265H126.848V78.902C126.848 78.11 126.584 77.549 126.056 77.219C125.528 76.867 124.538 76.691 123.086 76.691C121.304 76.691 119.555 76.966 117.839 77.516V74.084C118.609 73.776 119.544 73.523 120.644 73.325C121.766 73.127 122.943 73.028 124.175 73.028C126.595 73.028 128.487 73.523 129.851 74.513C131.237 75.503 131.93 77.076 131.93 79.232V89H127.277L127.013 87.68C126.441 88.208 125.704 88.615 124.802 88.901C123.922 89.187 122.822 89.33 121.502 89.33ZM123.185 86.063C124.021 86.063 124.747 85.92 125.363 85.634C125.979 85.348 126.474 84.985 126.848 84.545V82.334H123.086C121.524 82.334 120.743 82.961 120.743 84.215C120.743 84.787 120.941 85.238 121.337 85.568C121.733 85.898 122.349 86.063 123.185 86.063ZM139.934 89.33C138.218 89.33 136.986 88.956 136.238 88.208C135.49 87.46 135.116 86.261 135.116 84.611V66.758H140.429V84.083C140.429 84.589 140.528 84.941 140.726 85.139C140.946 85.315 141.265 85.403 141.683 85.403C142.277 85.403 142.805 85.326 143.267 85.172V88.769C142.761 88.967 142.255 89.11 141.749 89.198C141.265 89.286 140.66 89.33 139.934 89.33ZM149.248 89.33C147.532 89.33 146.3 88.956 145.552 88.208C144.804 87.46 144.43 86.261 144.43 84.611V66.758H149.743V84.083C149.743 84.589 149.842 84.941 150.04 85.139C150.26 85.315 150.579 85.403 150.997 85.403C151.591 85.403 152.119 85.326 152.581 85.172V88.769C152.075 88.967 151.569 89.11 151.063 89.198C150.579 89.286 149.974 89.33 149.248 89.33ZM162.963 89.33C160.235 89.33 158.046 88.659 156.396 87.317C154.746 85.953 153.921 83.907 153.921 81.179C153.921 78.693 154.603 76.713 155.967 75.239C157.331 73.765 159.377 73.028 162.105 73.028C164.591 73.028 166.516 73.666 167.88 74.942C169.244 76.218 169.926 77.934 169.926 80.09V82.895H158.838C159.08 83.929 159.641 84.655 160.521 85.073C161.423 85.469 162.644 85.667 164.184 85.667C165.042 85.667 165.911 85.59 166.791 85.436C167.693 85.282 168.441 85.084 169.035 84.842V88.307C168.287 88.659 167.396 88.912 166.362 89.066C165.328 89.242 164.195 89.33 162.963 89.33ZM158.838 79.826H165.306V79.133C165.306 78.363 165.075 77.758 164.613 77.318C164.151 76.856 163.37 76.625 162.27 76.625C160.994 76.625 160.103 76.889 159.597 77.417C159.091 77.923 158.838 78.726 158.838 79.826ZM172.628 89V73.358H177.578L177.743 74.711C178.381 74.271 179.184 73.886 180.152 73.556C181.12 73.204 182.154 73.028 183.254 73.028C185.278 73.028 186.752 73.512 187.676 74.48C188.6 75.448 189.062 76.944 189.062 78.968V89H183.749V79.397C183.749 78.517 183.562 77.89 183.188 77.516C182.814 77.142 182.143 76.955 181.175 76.955C180.603 76.955 180.02 77.087 179.426 77.351C178.832 77.615 178.337 77.945 177.941 78.341V89H172.628ZM198.986 94.808C198.216 94.808 197.402 94.775 196.544 94.709C195.686 94.643 194.872 94.544 194.102 94.412C193.332 94.28 192.672 94.126 192.122 93.95V90.32C193.002 90.606 194.058 90.826 195.29 90.98C196.522 91.134 197.655 91.211 198.689 91.211C200.031 91.211 201.032 91.134 201.692 90.98C202.374 90.848 202.715 90.606 202.715 90.254C202.715 89.946 202.583 89.737 202.319 89.627C202.055 89.517 201.538 89.462 200.768 89.462H196.445C195.037 89.462 193.937 89.209 193.145 88.703C192.375 88.197 191.99 87.46 191.99 86.492C191.99 85.832 192.188 85.205 192.584 84.611C193.002 84.017 193.607 83.577 194.399 83.291C193.497 82.829 192.815 82.246 192.353 81.542C191.891 80.838 191.66 79.947 191.66 78.869C191.66 76.845 192.309 75.371 193.607 74.447C194.927 73.501 196.852 73.028 199.382 73.028C199.91 73.028 200.493 73.072 201.131 73.16C201.791 73.226 202.275 73.292 202.583 73.358H208.589L208.457 76.658H206.18C206.73 77.208 207.005 78.022 207.005 79.1C207.005 80.618 206.51 81.839 205.52 82.763C204.552 83.687 203.078 84.149 201.098 84.149C200.768 84.149 200.438 84.138 200.108 84.116C199.8 84.072 199.492 84.039 199.184 84.017C198.612 84.083 198.117 84.204 197.699 84.38C197.303 84.556 197.105 84.809 197.105 85.139C197.105 85.403 197.204 85.579 197.402 85.667C197.622 85.755 197.941 85.799 198.359 85.799H202.352C203.958 85.799 205.201 86.173 206.081 86.921C206.983 87.647 207.434 88.714 207.434 90.122C207.434 93.246 204.618 94.808 198.986 94.808ZM199.415 81.212C200.581 81.212 201.384 81.014 201.824 80.618C202.264 80.222 202.484 79.562 202.484 78.638C202.484 77.714 202.253 77.043 201.791 76.625C201.351 76.207 200.559 75.998 199.415 75.998C198.337 75.998 197.556 76.207 197.072 76.625C196.61 77.021 196.379 77.692 196.379 78.638C196.379 79.518 196.599 80.167 197.039 80.585C197.479 81.003 198.271 81.212 199.415 81.212ZM219.231 89.33C216.503 89.33 214.314 88.659 212.664 87.317C211.014 85.953 210.189 83.907 210.189 81.179C210.189 78.693 210.871 76.713 212.235 75.239C213.599 73.765 215.645 73.028 218.373 73.028C220.859 73.028 222.784 73.666 224.148 74.942C225.512 76.218 226.194 77.934 226.194 80.09V82.895H215.106C215.348 83.929 215.909 84.655 216.789 85.073C217.691 85.469 218.912 85.667 220.452 85.667C221.31 85.667 222.179 85.59 223.059 85.436C223.961 85.282 224.709 85.084 225.303 84.842V88.307C224.555 88.659 223.664 88.912 222.63 89.066C221.596 89.242 220.463 89.33 219.231 89.33ZM215.106 79.826H221.574V79.133C221.574 78.363 221.343 77.758 220.881 77.318C220.419 76.856 219.638 76.625 218.538 76.625C217.262 76.625 216.371 76.889 215.865 77.417C215.359 77.923 215.106 78.726 215.106 79.826ZM235.985 89V67.748H246.611C249.119 67.748 250.967 68.408 252.155 69.728C253.343 71.048 253.937 72.819 253.937 75.041C253.937 76.471 253.574 77.725 252.848 78.803C252.122 79.881 251.132 80.684 249.878 81.212C250.186 81.454 250.428 81.729 250.604 82.037C250.802 82.323 251.011 82.73 251.231 83.258L253.739 89H248.195L245.819 83.588C245.621 83.126 245.368 82.796 245.06 82.598C244.752 82.378 244.312 82.268 243.74 82.268H241.298V89H235.985ZM241.298 78.176H245.225C246.259 78.176 247.062 77.923 247.634 77.417C248.228 76.889 248.525 76.097 248.525 75.041C248.525 72.907 247.502 71.84 245.456 71.84H241.298V78.176ZM262.021 89.33C260.173 89.33 258.732 88.813 257.698 87.779C256.664 86.723 256.147 85.194 256.147 83.192V73.358H261.46V82.895C261.46 83.775 261.669 84.424 262.087 84.842C262.527 85.238 263.176 85.436 264.034 85.436C264.672 85.436 265.277 85.304 265.849 85.04C266.421 84.776 266.894 84.446 267.268 84.05V73.358H272.581V89H267.631L267.466 87.68C266.828 88.164 266.058 88.56 265.156 88.868C264.254 89.176 263.209 89.33 262.021 89.33ZM280.764 89.33C279.048 89.33 277.816 88.956 277.068 88.208C276.32 87.46 275.946 86.261 275.946 84.611V66.758H281.259V84.083C281.259 84.589 281.358 84.941 281.556 85.139C281.776 85.315 282.095 85.403 282.513 85.403C283.107 85.403 283.635 85.326 284.097 85.172V88.769C283.591 88.967 283.085 89.11 282.579 89.198C282.095 89.286 281.49 89.33 280.764 89.33ZM294.48 89.33C291.752 89.33 289.563 88.659 287.913 87.317C286.263 85.953 285.438 83.907 285.438 81.179C285.438 78.693 286.12 76.713 287.484 75.239C288.848 73.765 290.894 73.028 293.622 73.028C296.108 73.028 298.033 73.666 299.397 74.942C300.761 76.218 301.443 77.934 301.443 80.09V82.895H290.355C290.597 83.929 291.158 84.655 292.038 85.073C292.94 85.469 294.161 85.667 295.701 85.667C296.559 85.667 297.428 85.59 298.308 85.436C299.21 85.282 299.958 85.084 300.552 84.842V88.307C299.804 88.659 298.913 88.912 297.879 89.066C296.845 89.242 295.712 89.33 294.48 89.33ZM290.355 79.826H296.823V79.133C296.823 78.363 296.592 77.758 296.13 77.318C295.668 76.856 294.887 76.625 293.787 76.625C292.511 76.625 291.62 76.889 291.114 77.417C290.608 77.923 290.355 78.726 290.355 79.826ZM309.791 89.33C308.537 89.33 307.349 89.242 306.227 89.066C305.105 88.89 304.214 88.67 303.554 88.406V84.347C304.324 84.677 305.215 84.93 306.227 85.106C307.239 85.282 308.141 85.37 308.933 85.37C309.879 85.37 310.561 85.326 310.979 85.238C311.419 85.15 311.639 84.908 311.639 84.512C311.639 84.072 311.287 83.742 310.583 83.522C309.879 83.302 308.911 82.983 307.679 82.565C306.249 82.059 305.16 81.476 304.412 80.816C303.686 80.134 303.323 79.133 303.323 77.813C303.323 76.273 303.895 75.096 305.039 74.282C306.205 73.446 308.053 73.028 310.583 73.028C311.573 73.028 312.552 73.105 313.52 73.259C314.488 73.413 315.28 73.589 315.896 73.787V77.78C315.28 77.494 314.576 77.285 313.784 77.153C312.992 77.021 312.277 76.955 311.639 76.955C310.825 76.955 310.132 77.01 309.56 77.12C309.01 77.208 308.735 77.439 308.735 77.813C308.735 78.231 309.043 78.528 309.659 78.704C310.275 78.858 311.166 79.122 312.332 79.496C313.564 79.87 314.521 80.277 315.203 80.717C315.885 81.135 316.369 81.641 316.655 82.235C316.941 82.829 317.084 83.577 317.084 84.479C317.084 86.041 316.468 87.24 315.236 88.076C314.004 88.912 312.189 89.33 309.791 89.33Z" fill="white"/>
<circle cx="176.5" cy="720.5" r="4.5" fill="#7D27F5"/>
<circle cx="197.5" cy="720.5" r="4.5" fill="white" fill-opacity="0.5"/>
<circle cx="218.5" cy="720.5" r="4.5" fill="white" fill-opacity="0.5"/>
<path d="M-17 115C-17 112.239 -14.7614 110 -12 110H165.464C169.041 110 171.461 113.647 170.071 116.943L150.665 162.943C149.884 164.796 148.069 166 146.058 166H-12C-14.7614 166 -17 163.761 -17 161V115Z" fill="#1DAB69"/>
<path d="M411 253C411 255.761 408.761 258 406 258L216.722 258C213.097 258 210.677 254.262 212.16 250.954L232.792 204.954C233.598 203.157 235.384 202 237.354 202L406 202C408.761 202 411 204.239 411 207L411 253Z" fill="#E84D4D"/>
<path d="M186.591 192L181.179 177.832H184.875L188.483 187.952L192.113 177.832H195.831L190.419 192H186.591ZM200.932 192.22C199.993 192.22 199.113 192.147 198.292 192C197.485 191.868 196.788 191.67 196.202 191.406V188.392C196.847 188.671 197.558 188.898 198.336 189.074C199.128 189.25 199.876 189.338 200.58 189.338C201.46 189.338 202.112 189.257 202.538 189.096C202.978 188.935 203.198 188.583 203.198 188.04C203.198 187.673 203.088 187.38 202.868 187.16C202.662 186.94 202.318 186.749 201.834 186.588C201.364 186.412 200.719 186.207 199.898 185.972C198.93 185.679 198.16 185.356 197.588 185.004C197.016 184.637 196.605 184.197 196.356 183.684C196.106 183.171 195.982 182.54 195.982 181.792C195.982 180.443 196.466 179.409 197.434 178.69C198.402 177.971 199.832 177.612 201.724 177.612C202.545 177.612 203.344 177.678 204.122 177.81C204.899 177.927 205.53 178.067 206.014 178.228V181.264C205.383 181.015 204.745 180.831 204.1 180.714C203.469 180.597 202.853 180.538 202.252 180.538C201.46 180.538 200.814 180.611 200.316 180.758C199.832 180.905 199.59 181.242 199.59 181.77C199.59 182.078 199.678 182.327 199.854 182.518C200.03 182.694 200.33 182.855 200.756 183.002C201.196 183.149 201.79 183.325 202.538 183.53C203.696 183.838 204.584 184.212 205.2 184.652C205.816 185.077 206.241 185.576 206.476 186.148C206.71 186.705 206.828 187.336 206.828 188.04C206.828 189.287 206.344 190.299 205.376 191.076C204.408 191.839 202.926 192.22 200.932 192.22Z" fill="white"/>
<path d="M101.824 163H58L80.3789 113H124.202L101.824 163Z" fill="white" fill-opacity="0.09"/>
<path d="M365.823 255H321.999L344.378 205H388.202L365.823 255Z" fill="white" fill-opacity="0.09"/>
<path d="M35.998 163H4L26.3789 113H58.377L35.998 163Z" fill="white" fill-opacity="0.09"/>
<path d="M299.998 255H268L290.379 205H322.378L299.998 255Z" fill="white" fill-opacity="0.09"/>
<path d="M62.4453 148V141.364L55.9773 129.968H60.6813L64.7133 137.444L68.7453 129.968H73.4493L66.9813 141.364V148H62.4453ZM78.5608 148.28C76.0035 148.28 74.1181 147.692 72.9048 146.516C71.6915 145.321 71.0848 143.604 71.0848 141.364C71.0848 139.143 71.6915 137.435 72.9048 136.24C74.1368 135.045 76.0221 134.448 78.5608 134.448C81.1181 134.448 83.0035 135.045 84.2168 136.24C85.4488 137.435 86.0648 139.143 86.0648 141.364C86.0648 143.604 85.4581 145.321 84.2448 146.516C83.0315 147.692 81.1368 148.28 78.5608 148.28ZM78.5608 144.752C79.6061 144.752 80.3528 144.491 80.8008 143.968C81.2488 143.445 81.4728 142.577 81.4728 141.364C81.4728 140.151 81.2488 139.283 80.8008 138.76C80.3528 138.237 79.6061 137.976 78.5608 137.976C77.5341 137.976 76.7968 138.237 76.3488 138.76C75.9008 139.283 75.6768 140.151 75.6768 141.364C75.6768 142.577 75.9008 143.445 76.3488 143.968C76.7968 144.491 77.5341 144.752 78.5608 144.752ZM92.9158 148.28C91.3478 148.28 90.1252 147.841 89.2478 146.964C88.3705 146.068 87.9318 144.771 87.9318 143.072V134.728H92.4398V142.82C92.4398 143.567 92.6172 144.117 92.9718 144.472C93.3452 144.808 93.8958 144.976 94.6238 144.976C95.1652 144.976 95.6785 144.864 96.1638 144.64C96.6492 144.416 97.0505 144.136 97.3678 143.8V134.728H101.876V148H97.6758L97.5358 146.88C96.9945 147.291 96.3412 147.627 95.5758 147.888C94.8105 148.149 93.9238 148.28 92.9158 148.28Z" fill="white"/>
<path d="M287.276 240.28C286.511 240.28 285.774 240.224 285.064 240.112C284.374 240.019 283.73 239.86 283.132 239.636V235.856C283.58 236.043 284.084 236.192 284.644 236.304C285.204 236.397 285.774 236.444 286.352 236.444C287.454 236.444 288.228 236.229 288.676 235.8C289.143 235.352 289.376 234.615 289.376 233.588V221.968H293.884V234.428C293.884 236.313 293.324 237.76 292.204 238.768C291.084 239.776 289.442 240.28 287.276 240.28ZM300.756 240.28C299.916 240.28 299.132 240.131 298.404 239.832C297.694 239.533 297.125 239.076 296.696 238.46C296.266 237.825 296.052 237.041 296.052 236.108C296.052 234.745 296.509 233.681 297.424 232.916C298.357 232.132 299.748 231.74 301.596 231.74H305.292V231.432C305.292 230.76 305.068 230.284 304.62 230.004C304.172 229.705 303.332 229.556 302.1 229.556C300.588 229.556 299.104 229.789 297.648 230.256V227.344C298.301 227.083 299.094 226.868 300.028 226.7C300.98 226.532 301.978 226.448 303.024 226.448C305.077 226.448 306.682 226.868 307.84 227.708C309.016 228.548 309.604 229.883 309.604 231.712V240H305.656L305.432 238.88C304.946 239.328 304.321 239.673 303.556 239.916C302.809 240.159 301.876 240.28 300.756 240.28ZM302.184 237.508C302.893 237.508 303.509 237.387 304.032 237.144C304.554 236.901 304.974 236.593 305.292 236.22V234.344H302.1C300.774 234.344 300.112 234.876 300.112 235.94C300.112 236.425 300.28 236.808 300.616 237.088C300.952 237.368 301.474 237.508 302.184 237.508ZM319.307 240.28C316.936 240.28 315.079 239.701 313.735 238.544C312.41 237.387 311.747 235.66 311.747 233.364C311.747 231.031 312.438 229.295 313.819 228.156C315.219 227.017 317.076 226.448 319.391 226.448C320.362 226.448 321.202 226.523 321.911 226.672C322.639 226.803 323.339 227.027 324.011 227.344V230.536C322.966 230.032 321.743 229.78 320.343 229.78C319.036 229.78 318.038 230.041 317.347 230.564C316.675 231.087 316.339 232.02 316.339 233.364C316.339 234.615 316.656 235.529 317.291 236.108C317.926 236.668 318.934 236.948 320.315 236.948C321.678 236.948 322.919 236.668 324.039 236.108V239.44C323.367 239.739 322.639 239.953 321.855 240.084C321.09 240.215 320.24 240.28 319.307 240.28ZM326.334 240V221.128H330.842V230.984L335.182 226.728H340.306L334.986 232.244L340.614 240H335.826L332.158 234.624L330.842 235.912V240H326.334Z" fill="white"/>
</g>
<defs>
<clipPath id="clip0_2526_7779">
<rect width="393" height="852" rx="40" fill="white"/>
</clipPath>
</defs>
</svg>
