<svg xmlns="http://www.w3.org/2000/svg" version="1.1" xmlns:xlink="http://www.w3.org/1999/xlink" width="1000" height="1000"><g clip-path="url(#SvgjsClipPath1231)"><rect width="1000" height="1000" fill="c4c4c4"></rect><g transform="matrix(7.455036809244246,0,0,7.455036809244246,289.208834218619,100)"><svg xmlns="http://www.w3.org/2000/svg" version="1.1" xmlns:xlink="http://www.w3.org/1999/xlink" width="56.55" height="107.31"><svg id="Layer_2" data-name="Layer 2" xmlns="http://www.w3.org/2000/svg" viewBox="0 0 56.55 107.31">
  <defs>
    <style>
      .cls-1 {
        fill: #FFFFFF;
        stroke-width: 0px;
      }
    </style>
  <clipPath id="SvgjsClipPath1231"><rect width="1000" height="1000" x="0" y="0" rx="150" ry="150"></rect></clipPath></defs>
  <g id="Layer_1-2" data-name="Layer 1">
    <path class="cls-1" d="M37.45,53.66c0,2.82.37,5.69-.07,8.44-1.31,8.22,1.39,12.95,10.19,13.9,6.74.72,9.53,4.92,8.88,11.77-.47,4.97-.27,10-.4,15-.05,2.05-.81,3.92-3.07,3.87-2.41-.05-2.74-2.16-2.75-4.12-.01-1.88.05-3.75.09-5.63q.32-15.1-14.98-17.38c-4.04-.61-8.02-.77-12.12-.22-16.55,2.21-16.56,2.14-16.34,18.97.02,1.87.1,3.76-.05,5.62-.13,1.71-1.17,3.07-2.92,2.86-1.01-.12-2.61-1.24-2.72-2.07-1.05-8.04-2.17-16.21.23-24.1,1.08-3.54,5.39-3.86,8.64-4.86,1.79-.55,3.62-.99,5.45-1.38,16.63-3.53,18.76-6.77,15.96-24.16-.31-1.9-.42-4.15-2.65-4.38-3.19-.32-3.1,2.4-3.15,4.55-.11,4.69-.06,9.38-.14,14.08-.03,1.94-.42,3.94-2.74,4.24-2.36.3-3.61-1.45-3.4-3.46,2.12-19.51-4.74-39.04.14-58.49.65-2.57.16-7.52,4.82-6.32,3.58.92,1.86,4.91,1.33,7.39-1.84,8.65-3.16,17.24-.41,25.94.63,1.99.5,4.85,3.59,4.47,2.14-.27,2.37-2.55,2.89-4.37,2.58-9.04,1.39-17.94-.81-26.83-.67-2.68-1.94-6.24,1.99-6.94,2.98-.53,3.56,2.82,4.1,5.29,2.11,9.53,3.81,19.11.95,28.75-1.94,6.53-.26,13.06-.54,19.57Z"></path>
    <path class="cls-1" d="M41.16,94.45c0,5.62-2.72,9.46-7.78,11.72-4.8,2.14-9.27,1.19-13.17-1.99-2.1-1.71-4.89-4.11-2.49-7,2.32-2.8,4.36-.01,6.17,1.63,2.67,2.43,5.57,2.85,8.44.48,2.76-2.29,3.59-5.23,1.34-8.27-2.72-3.69-6.1-4.04-9.67-1.08-1.99,1.64-3.99,5.57-6.58,1.84-2.18-3.15.98-5.82,3.5-7.65,4.14-3,8.74-3.29,13.31-1.03,4.62,2.28,6.94,6.14,6.94,11.35Z"></path>
  </g>
</svg></svg></g></g></svg>